<?xml version="1.0" standalone="no"?>
<!DOCTYPE svg PUBLIC "-//W3C//DTD SVG 20010904//EN"
 "http://www.w3.org/TR/2001/REC-SVG-20010904/DTD/svg10.dtd">
<svg version="1.0" xmlns="http://www.w3.org/2000/svg"
 width="368.000000pt" height="1600.000000pt" viewBox="0 0 368.000000 1600.000000"
 preserveAspectRatio="xMidYMid meet">

<g transform="translate(0.000000,1600.000000) scale(0.100000,-0.100000)"
fill="#000000" stroke="none">
<path d="M390 15990 c-8 -5 -7 -9 3 -13 9 -3 20 0 26 7 8 9 7 13 -4 13 -8 0
-19 -3 -25 -7z"/>
<path d="M434 15978 c-10 -13 -12 -17 -4 -11 9 9 17 9 26 2 8 -7 14 -7 19 1 4
6 1 9 -7 8 -7 -2 -12 3 -10 10 3 17 -2 15 -24 -10z"/>
<path d="M494 15989 c-6 -10 15 -23 23 -15 4 3 16 -2 27 -11 21 -18 21 -18 3
3 -9 11 -14 23 -11 27 3 3 -4 5 -16 4 -12 -1 -24 -5 -26 -8z"/>
<path d="M556 15991 c-6 -9 7 -22 34 -35 9 -5 8 -2 -2 7 -10 8 -15 16 -12 19
3 4 1 9 -5 12 -5 4 -12 2 -15 -3z"/>
<path d="M640 15985 c-7 -8 -16 -13 -19 -10 -4 2 -8 -2 -8 -10 0 -8 4 -12 8
-9 4 2 9 1 12 -3 2 -5 2 -2 1 5 -2 6 1 12 5 12 5 0 11 7 15 15 7 19 2 19 -14
0z"/>
<path d="M695 15992 c-9 -9 -5 -22 6 -22 5 0 7 5 4 10 -3 6 -2 10 4 10 5 0 13
-5 16 -10 4 -7 12 -7 25 0 28 15 40 12 34 -7 -4 -11 -3 -14 3 -7 13 19 79 22
68 4 -4 -6 -11 -7 -17 -4 -7 4 -8 2 -4 -5 6 -9 11 -9 22 0 26 21 -2 33 -81 34
-41 1 -77 0 -80 -3z"/>
<path d="M894 15988 c-5 -8 -2 -9 9 -5 11 4 22 -2 32 -16 8 -12 15 -16 15 -8
0 8 6 11 15 7 8 -3 15 -1 15 4 0 6 -6 10 -12 10 -9 0 -8 3 2 10 12 7 10 9 -7
8 -14 -2 -19 -7 -15 -18 4 -12 2 -12 -15 3 -23 20 -29 21 -39 5z"/>
<path d="M1047 15983 c4 -10 9 -11 19 -2 12 10 13 9 8 -5 -3 -9 -2 -16 4 -16
20 0 5 35 -16 36 -13 1 -19 -3 -15 -13z"/>
<path d="M2620 15991 c14 -4 24 -13 22 -20 -1 -7 2 -10 8 -6 17 10 -8 35 -34
34 -19 -1 -18 -2 4 -8z"/>
<path d="M2674 15981 c33 -36 72 -31 41 5 -7 9 -12 9 -18 0 -6 -8 -10 -8 -14
2 -2 6 -9 12 -15 12 -6 0 -3 -9 6 -19z"/>
<path d="M2736 15989 c4 -7 44 0 44 7 0 2 -11 3 -24 2 -14 -1 -23 -5 -20 -9z"/>
<path d="M2790 15990 c0 -5 -7 -10 -15 -10 -8 0 -15 -4 -15 -10 0 -13 11 -12
33 4 19 15 22 26 7 26 -5 0 -10 -4 -10 -10z"/>
<path d="M2816 15983 c-3 -8 -3 -20 1 -26 4 -6 0 -8 -10 -4 -10 4 -17 2 -17
-4 0 -6 -7 -8 -16 -5 -21 8 -84 -3 -84 -15 0 -5 31 -9 70 -9 65 0 69 1 68 23
-2 41 3 54 11 33 8 -20 8 -20 13 0 6 24 -27 31 -36 7z"/>
<path d="M3000 15988 c0 -5 5 -6 10 -3 6 3 10 1 10 -4 0 -15 27 -14 33 2 3 8
-5 13 -24 13 -16 1 -29 -3 -29 -8z"/>
<path d="M3134 15988 c-4 -7 -3 -8 4 -4 7 4 20 2 29 -3 17 -10 17 -10 1 -11
-20 0 -24 -15 -6 -26 6 -4 8 -3 5 3 -10 16 18 24 32 10 9 -9 11 -8 6 4 -3 9
-17 21 -31 28 -31 14 -31 14 -40 -1z"/>
<path d="M3208 15993 c6 -3 10 -9 6 -14 -8 -14 12 -11 24 4 8 9 4 12 -16 13
-15 1 -21 -1 -14 -3z"/>
<path d="M3260 15993 c0 -1 9 -7 19 -12 14 -8 22 -7 30 3 9 11 6 13 -19 12
-16 0 -30 -2 -30 -3z"/>
<path d="M3361 15989 c11 -8 10 -12 -5 -24 -18 -13 -18 -14 2 -12 11 0 20 4
20 7 -1 17 3 30 12 30 5 0 7 -6 4 -14 -4 -10 0 -14 13 -12 10 2 22 -2 26 -8 6
-7 7 -4 3 6 -3 10 -1 20 4 23 6 4 10 -1 10 -10 0 -13 2 -14 14 -3 17 16 17 16
-17 22 -15 3 -25 1 -22 -4 3 -5 1 -11 -4 -14 -5 -3 -11 0 -14 8 -3 7 -18 14
-32 14 -20 0 -23 -3 -14 -9z"/>
<path d="M317 15979 c7 -7 15 -10 18 -7 3 3 -2 9 -12 12 -14 6 -15 5 -6 -5z"/>
<path d="M355 15980 c-3 -6 -1 -10 4 -10 6 0 11 -7 11 -15 0 -17 -9 -19 -29
-6 -9 6 -22 6 -34 -1 -15 -8 -18 -7 -11 4 6 9 3 9 -11 -2 -13 -11 -19 -12 -22
-3 -2 7 -11 9 -20 6 -12 -5 -14 -3 -8 8 6 11 5 12 -5 2 -8 -7 -15 -20 -16 -28
-2 -15 3 -17 56 -17 115 0 130 2 130 18 0 9 -5 12 -12 8 -7 -5 -9 -2 -6 7 7
17 -18 43 -27 29z"/>
<path d="M2880 15981 c0 -5 7 -12 16 -15 14 -5 15 -4 4 9 -14 17 -20 19 -20 6z"/>
<path d="M3066 15981 c-9 -14 23 -36 35 -24 8 8 7 13 -2 18 -8 6 -10 4 -4 -5
5 -8 3 -11 -6 -8 -8 3 -13 11 -11 17 2 13 -5 15 -12 2z"/>
<path d="M2920 15971 c0 -6 4 -12 8 -15 5 -3 9 1 9 9 0 8 -4 15 -9 15 -4 0 -8
-4 -8 -9z"/>
<path d="M2958 15973 c6 -3 10 -8 8 -12 -3 -4 1 -8 8 -8 22 0 14 23 -8 24 -12
1 -15 -1 -8 -4z"/>
<path d="M3314 15964 c-18 -14 -18 -14 6 -3 31 14 36 19 24 19 -6 0 -19 -7
-30 -16z"/>
<path d="M3480 15969 c-12 -8 -10 -9 8 -4 13 4 22 2 22 -4 0 -6 -4 -11 -8 -11
-5 0 -9 -7 -9 -15 0 -26 20 -11 24 18 4 29 -10 35 -37 16z"/>
<path d="M185 15960 c-3 -5 -3 -15 1 -22 5 -7 2 -9 -8 -6 -13 5 -14 3 -4 -18
16 -35 25 -29 23 16 -2 43 -3 45 -12 30z"/>
<path d="M1026 15962 c-3 -4 4 -9 15 -9 23 -2 25 3 4 10 -8 4 -16 3 -19 -1z"/>
<path d="M498 15953 c7 -3 16 -2 19 1 4 3 -2 6 -13 5 -11 0 -14 -3 -6 -6z"/>
<path d="M1096 15942 c-3 -5 1 -9 9 -9 8 0 12 4 9 9 -3 4 -7 8 -9 8 -2 0 -6
-4 -9 -8z"/>
<path d="M2640 15939 c0 -5 -3 -8 -7 -6 -5 3 -21 -1 -38 -9 l-30 -14 35 5 c19
3 40 6 47 7 6 1 9 7 6 15 -6 16 -13 17 -13 2z"/>
<path d="M3460 15940 c0 -5 5 -10 11 -10 5 0 7 5 4 10 -3 6 -8 10 -11 10 -2 0
-4 -4 -4 -10z"/>
<path d="M320 15899 c0 -5 -4 -8 -9 -4 -5 3 -12 1 -15 -4 -4 -5 2 -8 11 -7 15
3 33 26 19 26 -3 0 -6 -5 -6 -11z"/>
<path d="M754 15898 c-3 -5 -10 -5 -16 -2 -7 5 -8 2 -3 -5 5 -9 11 -9 17 -3 6
6 17 8 24 5 8 -3 14 -1 14 4 0 12 -29 13 -36 1z"/>
<path d="M2775 15900 c-19 -8 -19 -9 2 -9 12 -1 25 4 28 9 7 12 -2 12 -30 0z"/>
<path d="M3235 15899 c-4 -6 -5 -12 -2 -15 2 -3 7 2 10 11 7 17 1 20 -8 4z"/>
<path d="M0 14945 l0 -925 1840 0 1840 0 0 925 0 925 -1840 0 -1840 0 0 -925z
m354 770 c-17 -17 -23 -32 -19 -45 7 -23 -10 -27 -31 -6 -7 8 -24 12 -36 9
-22 -4 -22 -4 -4 11 11 9 30 16 41 16 12 0 30 9 40 20 10 11 22 20 26 20 4 0
-3 -11 -17 -25z m53 -12 c-3 -10 -5 -4 -5 12 0 17 2 24 5 18 2 -7 2 -21 0 -30z
m3042 4 c-1 -20 -2 -20 -9 3 -7 21 -15 11 -11 -13 1 -5 -3 -6 -9 -2 -14 9 -13
32 3 38 18 7 27 -2 26 -26z m-2899 3 c0 -5 -4 -10 -10 -10 -5 0 -10 5 -10 10
0 6 5 10 10 10 6 0 10 -4 10 -10z m2060 -274 c-1 -6 -9 -1 -19 11 -10 12 -22
19 -26 15 -5 -4 -5 -1 -1 6 6 11 12 10 27 -4 10 -9 19 -22 19 -28z m-231 -3
c-3 -20 2 -34 10 -28 5 3 13 1 16 -5 4 -6 3 -10 -2 -9 -19 5 -43 -15 -43 -35
0 -11 -11 -31 -25 -44 -23 -23 -24 -23 -34 -3 -6 11 -11 38 -11 60 0 43 19 58
63 47 12 -3 16 -3 9 0 -6 3 -10 10 -6 15 6 11 24 12 23 2z m331 -54 c0 -8 5
-8 15 1 12 10 15 10 15 -1 0 -21 -17 -42 -28 -35 -13 8 -22 46 -11 46 5 0 9
-5 9 -11z m110 -15 c0 -24 -2 -25 -17 -13 -11 10 -14 10 -9 2 4 -7 3 -13 -3
-13 -5 0 -13 5 -17 11 -4 8 -9 7 -15 -2 -6 -10 -9 -6 -9 14 0 24 3 27 35 27
31 0 35 -3 35 -26z m119 9 c10 -17 10 -17 11 0 0 21 26 23 34 1 11 -29 7 -48
-7 -35 -10 8 -17 7 -25 -1 -9 -9 -12 -9 -12 1 0 7 -5 9 -12 4 -7 -4 -32 -8
-56 -8 -39 0 -42 2 -42 26 0 24 3 26 49 28 38 1 52 -3 60 -16z m71 0 c0 -15 2
-14 16 3 14 17 15 17 10 1 -3 -10 -6 -23 -6 -28 0 -5 -7 -9 -15 -9 -8 0 -15 4
-15 9 0 5 -3 16 -6 25 -3 9 -1 16 5 16 6 0 11 -8 11 -17z m70 8 c0 -5 3 -17 7
-27 4 -12 3 -15 -6 -10 -6 4 -18 2 -26 -4 -16 -13 -18 -7 -9 28 6 21 34 32 34
13z m70 -17 c0 -19 -5 -24 -25 -24 -20 0 -25 5 -25 24 0 18 5 24 25 24 20 0
25 -6 25 -24z m-2735 -154 c3 -6 -4 -10 -16 -10 -22 0 -22 0 -3 -15 17 -13 17
-14 2 -15 -10 0 -18 -7 -18 -16 0 -8 -4 -12 -10 -9 -11 7 -14 58 -3 68 10 10
41 8 48 -3z m310 -30 c0 -31 -3 -35 -27 -38 -27 -3 -28 -1 -28 38 0 39 1 41
28 38 24 -3 27 -7 27 -38z m344 4 c-7 -8 -9 -17 -6 -20 9 -9 27 5 27 22 0 8
10 14 25 14 21 0 25 -5 25 -30 0 -28 -2 -29 -44 -28 -39 0 -45 3 -49 27 -6 32
-1 42 19 34 11 -4 12 -8 3 -19z m-544 -14 c0 -20 -5 -25 -25 -25 -17 0 -26 7
-30 22 -6 26 -25 19 -33 -12 -3 -14 -5 -10 -6 11 -1 31 0 31 47 30 43 -1 47
-3 47 -26z m101 15 c4 -8 3 -23 -2 -32 -7 -16 -8 -15 -11 5 -5 27 -23 29 -23
2 0 -28 -20 -25 -21 3 l-2 22 -4 -22 c-6 -33 -23 -28 -23 7 0 28 2 30 40 30
27 0 43 -5 46 -15z m154 5 c0 -5 -4 -10 -10 -10 -5 0 -10 -9 -10 -20 0 -11 -4
-20 -10 -20 -5 0 -10 14 -10 30 0 23 4 30 20 30 11 0 20 -4 20 -10z m60 -20
c0 -25 -4 -30 -25 -30 -21 0 -25 5 -25 30 0 25 4 30 25 30 21 0 25 -5 25 -30z
m61 18 c0 -10 2 -10 6 0 3 7 23 12 49 12 42 0 44 -1 44 -30 0 -36 -7 -38 -20
-7 l-9 22 0 -22 c-1 -28 -21 -31 -21 -3 0 11 -4 20 -10 20 -5 0 -10 -10 -10
-21 0 -18 -2 -19 -15 -9 -8 7 -15 8 -15 3 0 -6 -10 -10 -22 -9 -28 1 -38 36
-11 37 16 0 16 1 -2 9 -18 8 -17 9 8 9 15 1 27 -5 28 -11z m-476 -143 c0 -25
-4 -31 -26 -33 -20 -2 -28 2 -33 20 -11 43 -8 49 27 46 28 -3 32 -6 32 -33z
m205 0 c0 -19 -4 -35 -10 -35 -5 0 -10 9 -10 20 0 11 -5 20 -11 20 -6 0 -9 -9
-6 -20 3 -12 0 -20 -8 -20 -14 0 -27 38 -19 52 3 5 14 6 25 3 11 -4 19 -2 19
4 0 6 5 11 10 11 6 0 10 -16 10 -35z m208 0 c2 -19 -1 -35 -7 -35 -10 0 -19
40 -13 58 7 23 18 12 20 -23z m222 6 c0 -20 6 -31 18 -34 10 -3 6 -5 -10 -6
-25 -1 -28 2 -28 34 0 19 5 35 10 35 6 0 10 -13 10 -29z m157 7 c-3 -8 -6 -5
-6 6 -1 11 2 17 5 13 3 -3 4 -12 1 -19z m138 1 l7 -21 15 21 c21 31 33 26 33
-14 0 -19 -4 -35 -10 -35 -5 0 -10 8 -10 18 0 13 -2 14 -9 3 -5 -7 -14 -10
-20 -7 -6 4 -11 2 -11 -3 0 -6 -4 -11 -10 -11 -5 0 -10 16 -10 35 0 39 15 47
25 14z m145 -1 c0 -17 3 -19 12 -10 18 18 27 14 22 -10 l-5 -23 10 23 c7 14
19 22 36 22 32 0 35 -30 3 -31 -22 -1 -22 -1 2 -8 20 -6 22 -8 8 -13 -18 -7
-57 0 -75 15 -9 6 -13 6 -13 -2 0 -6 -4 -11 -10 -11 -5 0 -10 16 -10 35 0 19
5 35 10 35 6 0 10 -10 10 -22z m-708 -13 c-2 -10 2 -22 10 -26 9 -6 7 -9 -9
-9 -19 0 -23 5 -23 31 0 20 4 29 13 26 6 -2 11 -12 9 -22z m402 -8 c0 -15 -4
-28 -9 -29 -10 -3 -26 48 -17 57 12 12 26 -3 26 -28z m-658 14 c-19 -7 -19 -8
3 -14 30 -8 18 -27 -17 -26 -23 0 -24 2 -8 8 20 8 20 8 0 12 -10 3 -28 3 -39
1 l-20 -5 20 -8 c17 -7 16 -8 -7 -8 -23 -1 -28 3 -28 23 0 23 3 25 58 24 35 0
49 -3 38 -7z m164 -16 c0 -14 -4 -25 -10 -25 -5 0 -10 9 -10 20 0 11 -4 20
-10 20 -5 0 -10 -9 -10 -20 0 -11 -4 -20 -10 -20 -5 0 -10 11 -10 25 0 21 5
25 30 25 25 0 30 -4 30 -25z m60 0 c0 -20 -5 -25 -25 -25 -29 0 -36 30 -7 31
14 0 14 2 -3 9 -18 8 -17 9 8 9 22 1 27 -3 27 -24z m138 -2 c-2 -20 -9 -28
-23 -28 -14 0 -21 8 -23 28 -3 23 0 27 23 27 23 0 26 -4 23 -27z m72 2 c0 -14
-4 -25 -10 -25 -5 0 -10 9 -10 20 0 11 -4 20 -10 20 -5 0 -10 -9 -10 -20 0
-11 -4 -20 -10 -20 -5 0 -10 11 -10 25 0 21 5 25 30 25 25 0 30 -4 30 -25z
m180 10 c0 -8 -8 -15 -17 -16 -16 0 -16 -1 1 -8 18 -7 18 -8 2 -14 -24 -10
-36 0 -36 29 0 19 5 24 25 24 16 0 25 -6 25 -15z m115 5 c-16 -7 -17 -9 -3 -9
22 -1 34 -21 18 -31 -7 -4 -22 -5 -33 -2 -20 5 -20 6 -1 13 16 7 17 8 2 8 -10
1 -18 8 -18 16 0 10 9 15 28 14 24 0 25 -1 7 -9z m205 -14 c0 -22 -31 -42 -44
-28 -12 12 -5 32 12 33 14 0 14 2 -3 9 -18 8 -17 9 8 9 22 1 27 -3 27 -23z
m525 -86 c-3 -5 -1 -10 4 -10 6 0 11 4 11 9 0 9 69 8 195 -5 33 -3 71 -12 84
-21 13 -8 20 -10 17 -4 -5 8 0 8 20 1 19 -7 30 -7 40 1 11 9 14 9 14 0 0 -7 4
-10 9 -7 5 3 11 -3 14 -14 3 -11 1 -20 -4 -20 -5 0 -9 5 -9 12 0 9 -3 9 -11 1
-8 -8 -20 -8 -35 -3 -12 5 -34 7 -48 4 -15 -2 -26 0 -26 7 0 6 -5 5 -14 -3 -9
-10 -41 -13 -117 -12 -134 2 -129 2 -129 19 0 8 -6 15 -14 15 -15 0 -28 24
-19 34 10 10 25 7 18 -4z m-1582 -17 c-7 -2 -13 -18 -13 -34 0 -16 -4 -29 -10
-29 -5 0 -10 13 -10 29 0 16 -6 32 -12 34 -7 3 3 5 22 5 19 0 29 -2 23 -5z
m259 -28 c2 -22 0 -34 -6 -32 -14 4 -21 67 -8 67 6 0 12 -16 14 -35z m79 19
c11 -14 13 -14 21 0 15 27 28 18 28 -19 0 -19 -4 -35 -10 -35 -5 0 -10 6 -10
13 0 7 -9 13 -20 13 -11 0 -20 -6 -20 -13 0 -7 -4 -13 -10 -13 -5 0 -10 16
-10 35 0 38 10 44 31 19z m-291 -6 c0 -4 -4 -8 -9 -8 -5 0 -12 -10 -14 -22 -3
-18 -5 -16 -6 8 -1 21 4 31 14 31 8 0 15 -4 15 -9z m58 -20 c3 -24 0 -28 -22
-28 -22 0 -26 4 -26 31 0 26 3 30 23 27 16 -2 23 -11 25 -30z m26 15 c6 -14 8
-14 21 3 17 22 20 3 5 -27 -15 -27 -24 -24 -37 11 -6 17 -8 30 -3 30 4 0 11
-7 14 -17z m94 -6 c2 -11 -3 -17 -15 -18 -16 0 -16 -1 2 -9 18 -8 17 -9 -7 -9
-23 -1 -28 3 -28 22 0 13 3 27 7 31 12 12 38 2 41 -17z m230 -9 c3 -24 0 -28
-22 -28 -30 0 -37 9 -29 39 8 33 47 25 51 -11z m60 -5 c-2 -30 -8 -39 -24 -41
-17 -2 -21 2 -22 29 -1 41 4 49 29 49 17 0 20 -6 17 -37z m92 27 c0 -5 -7 -10
-15 -10 -21 0 -19 -28 3 -33 13 -4 13 -5 -4 -6 -22 -1 -35 22 -27 47 5 14 43
17 43 2z m-60 -25 c0 -14 -2 -25 -4 -25 -2 0 -6 11 -8 25 -3 14 -1 25 3 25 5
0 9 -11 9 -25z m1638 -62 c11 -33 5 -42 -15 -22 -8 8 -13 8 -17 0 -4 -6 -12
-11 -18 -11 -12 0 -2 48 14 68 13 16 22 7 36 -35z m80 13 c-1 -11 1 -27 5 -33
13 -20 -14 -15 -29 5 -13 16 -13 16 -14 0 0 -33 -20 -18 -20 15 0 41 4 45 36
39 19 -3 24 -10 22 -26z m-278 9 c0 -8 -8 -15 -17 -14 -11 0 -13 3 -5 6 6 2
10 9 6 14 -3 5 0 9 5 9 6 0 11 -7 11 -15z m105 -2 c12 29 25 19 25 -18 0 -19
-4 -35 -10 -35 -5 0 -10 7 -10 15 0 21 -28 19 -33 -2 -3 -10 -5 0 -6 21 -1 37
0 38 13 20 14 -18 15 -18 21 -1z m213 -18 c-1 -19 -5 -35 -9 -35 -8 0 -18 58
-11 65 14 14 22 1 20 -30z m70 3 c-2 -28 -8 -34 -30 -36 -26 -3 -28 -1 -28 32
0 33 2 36 31 36 28 0 30 -2 27 -32z m32 15 c0 -15 2 -15 14 2 12 16 16 17 30
6 11 -9 16 -10 16 -2 0 6 4 11 9 11 12 0 -2 -63 -15 -67 -6 -2 -16 7 -22 19
l-11 23 0 -22 c-1 -24 -31 -33 -31 -10 0 6 -3 22 -6 35 -4 13 -2 22 5 22 6 0
11 -8 11 -17z m136 -19 l12 -29 -38 -1 c-37 -1 -38 0 -29 24 20 52 35 54 55 6z
m81 1 c-1 -40 -4 -42 -23 -17 -13 16 -13 16 -14 0 0 -34 -20 -18 -20 17 0 32
3 35 29 35 27 0 29 -3 28 -35z m-1006 13 c27 10 59 5 59 -9 0 -5 -19 -9 -43
-9 -24 0 -49 -6 -56 -12 -11 -10 -13 -10 -7 0 4 6 2 12 -4 12 -7 0 -6 5 2 14
7 8 16 10 19 5 3 -6 16 -6 30 -1z m122 -5 c-7 -2 -19 -2 -25 0 -7 3 -2 5 12 5
14 0 19 -2 13 -5z m167 -33 c0 -5 -4 -10 -9 -10 -6 0 -13 5 -16 10 -3 6 1 10
9 10 9 0 16 -4 16 -10z m-100 -26 c0 -8 -5 -12 -10 -9 -6 4 -8 11 -5 16 9 14
15 11 15 -7z m-30 -5 c0 -5 -4 -8 -9 -5 -9 6 -26 -22 -23 -36 1 -4 -5 -5 -13
-2 -8 4 -12 10 -9 15 3 5 -2 6 -10 3 -9 -3 -16 -10 -16 -15 0 -4 -6 -6 -14 -3
-7 3 -20 -1 -27 -8 -21 -20 -44 -16 -47 10 -2 15 2 22 15 23 31 2 57 7 98 17
54 13 55 14 55 1z m-1800 -34 c10 -12 16 -13 28 -3 10 9 13 9 9 1 -4 -6 -1
-13 5 -16 7 -2 -6 -4 -29 -4 -35 1 -43 4 -43 19 0 22 13 23 30 3z m103 0 c-3
-9 -8 -14 -10 -11 -3 3 -2 9 2 15 9 16 15 13 8 -4z m93 -22 c-11 -11 -19 6
-11 24 8 17 8 17 12 0 3 -10 2 -21 -1 -24z m64 12 c0 -8 -9 -13 -20 -12 -19 1
-27 17 -14 30 10 9 34 -4 34 -18z m300 -6 c0 -5 -5 -9 -11 -9 -5 0 -8 4 -4 9
3 5 1 12 -5 16 -5 3 -10 1 -10 -6 0 -7 -3 -10 -6 -6 -3 3 -3 11 1 17 7 12 35
-5 35 -21z m426 9 c0 -23 -12 -23 -25 0 -8 12 -10 13 -11 3 0 -8 -3 -12 -6 -8
-10 10 3 23 23 23 11 0 19 -7 19 -18z m82 8 c12 -1 22 -6 22 -12 0 -16 -43
-12 -58 6 -8 8 -11 10 -8 3 4 -6 2 -14 -4 -18 -6 -3 -10 3 -10 15 0 17 4 20
18 14 9 -4 27 -8 40 -8z m-908 -6 c0 -5 -5 -10 -11 -10 -5 0 -7 5 -4 10 3 6 8
10 11 10 2 0 4 -4 4 -10z m187 -5 c0 -8 -6 -15 -14 -15 -14 0 -17 12 -6 23 11
11 20 8 20 -8z m47 0 c-4 -8 -11 -15 -16 -15 -6 0 -5 6 2 15 7 8 14 15 16 15
2 0 1 -7 -2 -15z m33 -7 c-3 -8 -6 -5 -6 6 -1 11 2 17 5 13 3 -3 4 -12 1 -19z
m73 2 c0 -4 -11 -7 -25 -7 -20 0 -23 2 -14 13 10 13 39 9 39 -6z m157 -2 c-3
-8 -6 -5 -6 6 -1 11 2 17 5 13 3 -3 4 -12 1 -19z m41 4 c2 -7 -3 -12 -10 -12
-8 0 -15 7 -15 15 0 18 19 15 25 -3z m26 3 c-4 -8 -8 -15 -10 -15 -2 0 -4 7
-4 15 0 8 4 15 10 15 5 0 7 -7 4 -15z m54 -3 c2 -7 -3 -12 -10 -12 -8 0 -15 7
-15 15 0 18 19 15 25 -3z m353 8 c13 -7 19 -7 19 0 0 5 5 10 10 10 6 0 10 -6
10 -14 0 -19 -57 -18 -64 1 -6 16 -1 16 25 3z m69 -5 c0 -8 -2 -15 -4 -15 -2
0 -6 7 -10 15 -3 8 -1 15 4 15 6 0 10 -7 10 -15z m-890 -7 c0 -4 -7 -8 -15 -8
-8 0 -15 4 -15 8 0 5 7 9 15 9 8 0 15 -4 15 -9z m285 2 c3 -5 2 -10 -4 -10 -5
0 -13 5 -16 10 -3 6 -2 10 4 10 5 0 13 -4 16 -10z m275 2 c0 -5 -7 -9 -15 -9
-8 0 -15 4 -15 9 0 4 7 8 15 8 8 0 15 -4 15 -8z m-886 -87 c3 -8 1 -15 -4 -15
-6 0 -10 7 -10 15 0 8 2 15 4 15 2 0 6 -7 10 -15z m50 3 c-3 -4 0 -8 5 -8 6 0
11 4 11 10 0 5 22 9 49 8 53 -2 62 -22 11 -24 -16 -1 -27 2 -24 7 3 5 0 9 -5
9 -6 0 -11 -4 -11 -10 0 -5 -15 -9 -33 -8 -20 1 -34 6 -34 14 0 7 8 12 18 11
10 -1 15 -5 13 -9z m146 -3 c0 -8 -4 -15 -10 -15 -5 0 -10 7 -10 15 0 8 5 15
10 15 6 0 10 -7 10 -15z m1410 -156 c61 -27 172 -137 117 -116 -8 3 -20 1 -28
-5 -11 -8 -10 -8 5 -4 15 5 17 4 7 -8 -15 -17 -51 -28 -51 -14 0 6 -9 8 -20 5
-10 -3 -22 0 -25 7 -3 8 -7 8 -11 -1 -3 -7 -10 -13 -15 -13 -6 0 -8 4 -5 9 3
5 -11 3 -32 -5 -20 -7 -48 -13 -61 -14 -14 0 -33 -7 -43 -17 -10 -9 -18 -11
-18 -5 0 8 -10 7 -32 -3 -18 -7 -33 -18 -33 -24 0 -6 -3 -11 -7 -11 -5 0 -13
0 -19 0 -8 0 -8 5 1 15 14 17 3 20 -20 5 -18 -11 -15 -15 46 -45 l49 -24 -40
6 c-22 3 -47 11 -55 18 -16 13 -49 28 -65 30 -51 6 -75 39 -30 41 14 1 23 -2
20 -6 -5 -7 37 -40 51 -40 4 0 -1 10 -12 22 -10 13 -12 17 -4 11 9 -7 21 -8
29 -4 10 6 4 11 -20 16 -18 4 -41 12 -50 18 -24 15 -7 58 43 103 90 81 217
101 328 53z m-1270 -84 l0 -55 -175 0 -175 0 0 55 0 55 175 0 175 0 0 -55z
m1404 -73 c11 -18 -8 -52 -31 -58 -14 -4 -20 -10 -14 -13 15 -10 -15 -51 -37
-50 -12 0 -10 3 6 10 31 12 23 35 -11 31 -19 -2 -27 1 -27 12 0 9 5 16 10 16
6 0 10 6 10 14 0 7 15 21 33 30 36 18 53 20 61 8z m-121 -37 c-3 -9 -8 -14
-10 -11 -3 3 -2 9 2 15 9 16 15 13 8 -4z m-228 -35 c3 -5 -1 -10 -10 -10 -9 0
-13 5 -10 10 3 6 8 10 10 10 2 0 7 -4 10 -10z m225 3 c0 -5 -4 -15 -10 -23 -5
-9 -5 -19 1 -26 9 -11 -8 -13 -62 -5 -3 1 -19 12 -35 26 -28 24 -28 25 -6 25
12 0 22 -6 22 -14 0 -8 9 -13 24 -12 13 0 22 4 19 9 -2 4 5 7 17 7 12 0 18 5
15 10 -3 6 -1 10 4 10 6 0 11 -3 11 -7z m270 -78 c0 -8 5 -15 10 -15 6 0 10 7
10 16 0 9 7 14 16 12 8 -2 15 -6 15 -10 -1 -5 -1 -24 -1 -44 0 -30 -2 -34 -14
-25 -11 9 -15 9 -20 -1 -5 -11 -7 -11 -12 0 -5 10 -9 10 -20 1 -12 -10 -14 -4
-14 35 0 34 4 46 15 46 8 0 15 -7 15 -15z m137 -28 c9 -21 12 -41 8 -45 -4 -4
-10 -1 -12 6 -5 14 -43 16 -43 2 0 -5 -7 -10 -15 -10 -12 0 -12 7 3 45 20 55
38 55 59 2z m59 26 c13 -17 13 -17 14 0 0 9 6 17 13 17 8 0 11 -14 9 -45 -2
-25 -7 -45 -11 -45 -3 0 -14 12 -23 28 l-17 27 -1 -27 c0 -16 -4 -28 -10 -28
-5 0 -10 20 -10 45 0 48 13 58 36 28z m123 -27 c8 -20 10 -40 6 -44 -4 -4 -10
-1 -12 6 -5 14 -43 16 -43 2 0 -5 -4 -10 -10 -10 -14 0 -13 11 5 54 19 45 35
42 54 -8z m51 9 c0 -28 4 -35 20 -35 11 0 20 -4 20 -10 0 -5 -13 -10 -30 -10
-29 0 -30 2 -30 45 0 25 5 45 10 45 6 0 10 -16 10 -35z m78 -7 c-5 -59 -28
-63 -28 -4 0 35 4 46 16 46 12 0 15 -9 12 -42z"/>
<path d="M2900 15365 c0 -8 5 -15 10 -15 6 0 10 7 10 15 0 8 -4 15 -10 15 -5
0 -10 -7 -10 -15z"/>
<path d="M690 15180 c0 -11 5 -20 10 -20 6 0 10 9 10 20 0 11 -4 20 -10 20 -5
0 -10 -9 -10 -20z"/>
<path d="M1106 15181 c-4 -7 -5 -15 -2 -18 9 -9 19 4 14 18 -4 11 -6 11 -12 0z"/>
<path d="M490 15176 c0 -9 5 -16 10 -16 6 0 10 4 10 9 0 6 -4 13 -10 16 -5 3
-10 -1 -10 -9z"/>
<path d="M380 15040 c0 -11 7 -20 15 -20 8 0 15 9 15 20 0 11 -7 20 -15 20 -8
0 -15 -9 -15 -20z"/>
<path d="M866 15035 c-3 -8 -1 -15 4 -15 6 0 10 7 10 15 0 8 -2 15 -4 15 -2 0
-6 -7 -10 -15z"/>
<path d="M890 14900 c0 -5 5 -10 10 -10 6 0 10 5 10 10 0 6 -4 10 -10 10 -5 0
-10 -4 -10 -10z"/>
<path d="M2640 14850 c0 -5 5 -10 10 -10 6 0 10 5 10 10 0 6 -4 10 -10 10 -5
0 -10 -4 -10 -10z"/>
<path d="M2750 14835 c0 -14 4 -25 9 -25 12 0 19 21 13 38 -8 21 -22 13 -22
-13z"/>
<path d="M3000 14850 c0 -5 5 -10 10 -10 6 0 10 5 10 10 0 6 -4 10 -10 10 -5
0 -10 -4 -10 -10z"/>
<path d="M2050 14290 c0 -5 5 -10 11 -10 5 0 7 5 4 10 -3 6 -8 10 -11 10 -2 0
-4 -4 -4 -10z"/>
<path d="M2360 14160 c0 -5 5 -10 11 -10 5 0 7 5 4 10 -3 6 -8 10 -11 10 -2 0
-4 -4 -4 -10z"/>
<path d="M1410 13652 c0 -7 -4 -10 -10 -7 -5 3 -10 -1 -10 -10 0 -11 5 -15 14
-12 8 3 17 1 20 -6 3 -8 5 -6 5 3 0 8 -4 22 -9 30 -7 11 -10 11 -10 2z"/>
<path d="M1481 13640 c-1 -20 4 -26 21 -27 18 -2 20 0 8 7 -13 9 -13 11 0 21
13 9 13 10 -2 6 -9 -3 -19 -1 -22 6 -2 7 -5 1 -5 -13z"/>
<path d="M1672 13641 c4 -32 48 -41 48 -10 0 14 -5 19 -14 16 -7 -3 -19 0 -26
6 -9 9 -11 7 -8 -12z"/>
<path d="M1750 13651 c0 -6 5 -13 11 -17 8 -4 7 -9 -2 -15 -8 -5 -9 -9 -3 -9
6 0 21 8 33 19 18 15 19 20 6 25 -9 3 -15 0 -15 -10 0 -8 -5 -12 -10 -9 -6 4
-8 11 -5 16 4 5 1 9 -4 9 -6 0 -11 -4 -11 -9z"/>
<path d="M1822 13635 c0 -16 2 -22 5 -12 2 9 2 23 0 30 -3 6 -5 -1 -5 -18z"/>
<path d="M1928 13635 c2 -14 6 -25 7 -25 1 0 5 11 7 25 3 16 1 25 -7 25 -8 0
-10 -9 -7 -25z"/>
<path d="M2067 13639 c-3 -12 0 -22 9 -26 20 -7 24 -1 17 25 -7 28 -19 28 -26
1z"/>
<path d="M2129 13633 c5 -26 6 -26 9 -5 2 12 8 22 13 22 5 0 9 -10 10 -22 0
-22 1 -22 8 -3 9 21 -3 35 -30 35 -12 0 -15 -6 -10 -27z"/>
<path d="M2280 13650 c0 -5 -7 -7 -15 -4 -18 7 -21 -21 -3 -32 7 -5 8 -3 3 6
-6 10 -4 12 8 7 12 -5 17 -1 17 13 0 11 -2 20 -5 20 -3 0 -5 -4 -5 -10z"/>
<path d="M1445 13640 c-8 -13 3 -30 18 -30 7 0 6 4 -3 10 -10 6 -11 10 -2 10
6 0 12 5 12 10 0 6 -4 10 -9 10 -6 0 -13 -4 -16 -10z"/>
<path d="M1530 13633 c0 -20 17 -24 33 -8 14 13 16 13 20 -3 4 -14 5 -14 6 3
1 17 3 18 11 5 8 -13 10 -13 10 2 0 13 -8 17 -40 15 -24 -1 -40 -6 -40 -14z"/>
<path d="M1625 13639 c-4 -6 -2 -16 5 -22 10 -9 11 -9 6 0 -3 6 -1 13 6 15 9
3 9 6 1 11 -7 4 -15 2 -18 -4z"/>
<path d="M1880 13635 c9 -11 10 -16 3 -11 -7 4 -13 2 -13 -3 0 -6 7 -11 16
-11 19 0 15 31 -6 38 -13 5 -13 3 0 -13z"/>
<path d="M1955 13640 c-7 -12 2 -30 16 -30 5 0 9 9 9 20 0 21 -15 27 -25 10z"/>
<path d="M1991 13633 c-1 -14 5 -23 14 -23 9 0 15 9 14 23 0 21 -1 21 -8 2
l-8 -20 -5 20 c-5 18 -6 18 -7 -2z"/>
<path d="M2197 13633 c5 -12 3 -14 -7 -8 -9 5 -11 4 -6 -3 11 -19 26 -14 26 8
0 11 -4 20 -10 20 -5 0 -6 -7 -3 -17z"/>
<path d="M1840 13630 c0 -5 5 -10 10 -10 6 0 10 5 10 10 0 6 -4 10 -10 10 -5
0 -10 -4 -10 -10z"/>
<path d="M2220 13630 c0 -5 5 -10 10 -10 6 0 10 5 10 10 0 6 -4 10 -10 10 -5
0 -10 -4 -10 -10z"/>
<path d="M791 13434 c0 -11 3 -14 6 -6 3 7 2 16 -1 19 -3 4 -6 -2 -5 -13z"/>
<path d="M1351 13434 c0 -11 3 -14 6 -6 3 7 2 16 -1 19 -3 4 -6 -2 -5 -13z"/>
<path d="M2665 13430 c-3 -5 -1 -10 4 -10 6 0 11 5 11 10 0 6 -2 10 -4 10 -3
0 -8 -4 -11 -10z"/>
<path d="M450 13344 c0 -8 5 -12 10 -9 6 4 8 11 5 16 -9 14 -15 11 -15 -7z"/>
<path d="M1221 13344 c0 -11 3 -14 6 -6 3 7 2 16 -1 19 -3 4 -6 -2 -5 -13z"/>
<path d="M2661 13344 c0 -11 3 -14 6 -6 3 7 2 16 -1 19 -3 4 -6 -2 -5 -13z"/>
<path d="M1265 13340 c-3 -5 -1 -10 4 -10 6 0 11 5 11 10 0 6 -2 10 -4 10 -3
0 -8 -4 -11 -10z"/>
<path d="M1550 13340 c0 -5 5 -10 10 -10 6 0 10 5 10 10 0 6 -4 10 -10 10 -5
0 -10 -4 -10 -10z"/>
<path d="M2190 13340 c0 -5 5 -10 10 -10 6 0 10 5 10 10 0 6 -4 10 -10 10 -5
0 -10 -4 -10 -10z"/>
<path d="M2320 13340 c0 -5 5 -10 10 -10 6 0 10 5 10 10 0 6 -4 10 -10 10 -5
0 -10 -4 -10 -10z"/>
<path d="M2610 13339 c0 -5 5 -7 10 -4 6 3 10 8 10 11 0 2 -4 4 -10 4 -5 0
-10 -5 -10 -11z"/>
<path d="M3091 13334 c0 -11 3 -14 6 -6 3 7 2 16 -1 19 -3 4 -6 -2 -5 -13z"/>
<path d="M841 13254 c0 -11 3 -14 6 -6 3 7 2 16 -1 19 -3 4 -6 -2 -5 -13z"/>
<path d="M971 13254 c0 -11 3 -14 6 -6 3 7 2 16 -1 19 -3 4 -6 -2 -5 -13z"/>
<path d="M1057 13256 c-4 -10 -1 -13 9 -9 15 6 19 23 5 23 -5 0 -11 -7 -14
-14z"/>
<path d="M1150 13258 c0 -4 7 -8 15 -8 8 0 15 4 15 8 0 5 -7 9 -15 9 -8 0 -15
-4 -15 -9z"/>
<path d="M1205 13260 c-3 -5 -1 -10 4 -10 6 0 11 5 11 10 0 6 -2 10 -4 10 -3
0 -8 -4 -11 -10z"/>
<path d="M1350 13259 c0 -5 5 -7 10 -4 6 3 10 8 10 11 0 2 -4 4 -10 4 -5 0
-10 -5 -10 -11z"/>
<path d="M1560 13254 c0 -8 5 -12 10 -9 6 4 8 11 5 16 -9 14 -15 11 -15 -7z"/>
<path d="M1711 13254 c0 -11 3 -14 6 -6 3 7 2 16 -1 19 -3 4 -6 -2 -5 -13z"/>
<path d="M1770 13254 c0 -8 5 -12 10 -9 6 4 8 11 5 16 -9 14 -15 11 -15 -7z"/>
<path d="M2181 13254 c0 -11 3 -14 6 -6 3 7 2 16 -1 19 -3 4 -6 -2 -5 -13z"/>
<path d="M2395 13261 c-3 -5 -2 -12 3 -15 5 -3 9 1 9 9 0 17 -3 19 -12 6z"/>
<path d="M2607 13259 c7 -7 15 -10 18 -7 3 3 -2 9 -12 12 -14 6 -15 5 -6 -5z"/>
<path d="M2706 13258 c3 -4 9 -8 15 -8 5 0 9 4 9 8 0 5 -7 9 -15 9 -8 0 -12
-4 -9 -9z"/>
<path d="M2808 13263 c7 -3 16 -2 19 1 4 3 -2 6 -13 5 -11 0 -14 -3 -6 -6z"/>
<path d="M2130 13249 c0 -5 5 -7 10 -4 6 3 10 8 10 11 0 2 -4 4 -10 4 -5 0
-10 -5 -10 -11z"/>
<path d="M658 12503 c7 -3 16 -2 19 1 4 3 -2 6 -13 5 -11 0 -14 -3 -6 -6z"/>
<path d="M760 12492 c19 -9 45 -32 57 -51 13 -19 23 -28 23 -21 0 19 -75 90
-96 90 -12 0 -7 -6 16 -18z"/>
<path d="M2879 12471 c-22 -21 -39 -44 -39 -51 0 -7 10 2 23 21 12 19 38 42
57 51 23 12 28 18 16 18 -10 0 -36 -17 -57 -39z"/>
<path d="M3008 12503 c7 -3 16 -2 19 1 4 3 -2 6 -13 5 -11 0 -14 -3 -6 -6z"/>
<path d="M3053 12486 c10 -8 25 -23 33 -33 14 -17 14 -16 4 4 -6 13 -20 27
-33 33 -20 10 -21 10 -4 -4z"/>
<path d="M1734 12468 l-19 -23 23 19 c12 11 22 21 22 23 0 8 -8 2 -26 -19z"/>
<path d="M1940 12463 c13 -18 25 -33 27 -33 8 0 -17 38 -33 51 -11 9 -9 2 6
-18z"/>
<path d="M585 12454 c-9 -14 -15 -27 -13 -30 2 -2 12 10 22 26 21 37 15 40 -9
4z"/>
<path d="M2961 12422 c-6 -12 -21 -22 -31 -22 -24 0 -26 -13 -5 -30 9 -7 13
-21 9 -35 -5 -20 -2 -22 40 -21 40 1 46 4 46 23 0 12 5 25 10 28 17 11 11 35
-9 35 -10 0 -25 10 -33 22 l-15 22 -12 -22z"/>
<path d="M657 12423 c-11 -11 -8 -95 3 -88 5 3 7 0 4 -8 -4 -11 4 -14 36 -11
51 3 56 7 33 25 -11 9 -14 10 -9 2 11 -19 -32 -17 -50 2 -14 13 -13 15 6 15
12 0 18 4 15 10 -4 6 -10 8 -15 5 -4 -3 -10 5 -13 17 -4 13 -1 26 6 30 7 5 8
8 1 8 -6 0 -14 -3 -17 -7z"/>
<path d="M1702 12400 c0 -14 2 -19 5 -12 2 6 2 18 0 25 -3 6 -5 1 -5 -13z"/>
<path d="M1787 12385 c-9 -20 -17 -42 -17 -50 0 -21 47 -19 60 3 10 16 10 16
20 0 13 -22 60 -24 60 -3 0 8 -8 30 -17 50 -15 31 -21 35 -53 35 -32 0 -38 -4
-53 -35z m63 15 c0 -5 -4 -10 -10 -10 -5 0 -10 5 -10 10 0 6 5 10 10 10 6 0
10 -4 10 -10z m0 -30 c0 -5 -4 -10 -10 -10 -5 0 -10 5 -10 10 0 6 5 10 10 10
6 0 10 -4 10 -10z"/>
<path d="M1973 12375 c0 -27 2 -38 4 -22 2 15 2 37 0 50 -2 12 -4 0 -4 -28z"/>
<path d="M563 12375 c0 -22 2 -30 4 -17 2 12 2 30 0 40 -3 9 -5 -1 -4 -23z"/>
<path d="M3113 12375 c0 -22 2 -30 4 -17 2 12 2 30 0 40 -3 9 -5 -1 -4 -23z"/>
<path d="M841 12374 c0 -11 3 -14 6 -6 3 7 2 16 -1 19 -3 4 -6 -2 -5 -13z"/>
<path d="M2831 12374 c0 -11 3 -14 6 -6 3 7 2 16 -1 19 -3 4 -6 -2 -5 -13z"/>
<path d="M717 12369 c7 -7 15 -10 18 -7 3 3 -2 9 -12 12 -14 6 -15 5 -6 -5z"/>
<path d="M1702 12350 c0 -14 2 -19 5 -12 2 6 2 18 0 25 -3 6 -5 1 -5 -13z"/>
<path d="M830 12332 c0 -6 -15 -28 -32 -48 -23 -25 -26 -33 -12 -24 25 15 59
68 50 77 -3 4 -6 1 -6 -5z"/>
<path d="M2840 12337 c0 -17 33 -64 54 -77 17 -10 17 -8 -5 16 -15 16 -31 38
-37 49 -6 11 -12 16 -12 12z"/>
<path d="M570 12323 c0 -7 10 -22 23 -35 12 -13 17 -17 11 -8 -6 8 -16 24 -22
35 -6 11 -12 15 -12 8z"/>
<path d="M3092 12305 c-6 -14 -26 -34 -44 -45 -18 -11 -28 -20 -22 -20 26 0
95 73 81 86 -2 2 -9 -7 -15 -21z"/>
<path d="M1710 12313 c0 -14 67 -73 83 -73 7 0 -2 9 -19 19 -18 11 -39 30 -48
42 -9 13 -16 18 -16 12z"/>
<path d="M1952 12299 c-7 -11 -27 -28 -45 -39 -18 -11 -26 -20 -19 -20 15 0
89 66 82 74 -3 3 -11 -4 -18 -15z"/>
<path d="M637 12249 c16 -16 88 -23 109 -11 15 9 12 10 -18 5 -20 -3 -52 0
-70 6 -23 8 -29 8 -21 0z"/>
<path d="M2931 12239 c13 -8 88 -14 78 -5 -2 2 -24 6 -48 9 -29 4 -40 2 -30
-4z"/>
<path d="M1823 12233 c9 -2 25 -2 35 0 9 3 1 5 -18 5 -19 0 -27 -2 -17 -5z"/>
<path d="M2773 12053 c115 -2 299 -2 410 0 111 1 18 2 -208 2 -225 0 -316 -1
-202 -2z"/>
<path d="M1620 11910 c0 -5 5 -10 11 -10 5 0 7 5 4 10 -3 6 -8 10 -11 10 -2 0
-4 -4 -4 -10z"/>
<path d="M1911 11904 c0 -11 3 -14 6 -6 3 7 2 16 -1 19 -3 4 -6 -2 -5 -13z"/>
<path d="M1081 11824 c0 -11 3 -14 6 -6 3 7 2 16 -1 19 -3 4 -6 -2 -5 -13z"/>
<path d="M235 11820 c3 -5 8 -10 11 -10 2 0 4 5 4 10 0 6 -5 10 -11 10 -5 0
-7 -4 -4 -10z"/>
<path d="M2670 11819 c0 -5 5 -7 10 -4 6 3 10 8 10 11 0 2 -4 4 -10 4 -5 0
-10 -5 -10 -11z"/>
<path d="M3073 11735 c0 -8 4 -12 9 -9 5 3 6 10 3 15 -9 13 -12 11 -12 -6z"/>
<path d="M1620 11730 c-9 -6 -10 -10 -3 -10 6 0 15 5 18 10 8 12 4 12 -15 0z"/>
<path d="M1970 11730 c0 -5 5 -10 11 -10 5 0 7 5 4 10 -3 6 -8 10 -11 10 -2 0
-4 -4 -4 -10z"/>
<path d="M2458 11723 c6 -2 18 -2 25 0 6 3 1 5 -13 5 -14 0 -19 -2 -12 -5z"/>
<path d="M2658 11723 c7 -3 16 -2 19 1 4 3 -2 6 -13 5 -11 0 -14 -3 -6 -6z"/>
<path d="M526 11653 c-6 -14 -5 -15 5 -6 7 7 10 15 7 18 -3 3 -9 -2 -12 -12z"/>
<path d="M861 11654 c0 -11 3 -14 6 -6 3 7 2 16 -1 19 -3 4 -6 -2 -5 -13z"/>
<path d="M3286 11655 c-3 -8 -1 -15 4 -15 6 0 10 7 10 15 0 8 -2 15 -4 15 -2
0 -6 -7 -10 -15z"/>
<path d="M1048 11353 c12 -2 32 -2 45 0 12 2 2 4 -23 4 -25 0 -35 -2 -22 -4z"/>
<path d="M2561 11351 c-10 -6 -1 -8 26 -4 57 8 86 -2 124 -39 25 -25 29 -27
20 -10 -26 49 -127 80 -170 53z"/>
<path d="M966 11310 c-20 -23 -36 -50 -35 -63 1 -17 3 -15 10 9 5 18 25 46 44
63 20 17 32 31 27 31 -6 0 -26 -18 -46 -40z"/>
<path d="M1159 11312 c20 -20 38 -36 40 -34 6 3 -61 72 -70 72 -4 0 9 -17 30
-38z"/>
<path d="M2506 11309 c-14 -17 -26 -36 -26 -42 0 -7 6 -3 12 8 6 11 20 30 31
43 11 12 18 22 15 22 -4 0 -18 -14 -32 -31z"/>
<path d="M2573 11279 c-19 -7 -23 -16 -23 -53 0 -70 5 -76 67 -76 l54 0 -3 68
-3 67 -35 1 c-19 1 -45 -2 -57 -7z m60 -32 c3 -8 2 -20 -3 -27 -6 -10 -11 -10
-22 1 -11 10 -12 17 -4 26 14 16 23 16 29 0z m0 -74 c-13 -2 -33 -2 -45 0 -13
2 -3 4 22 4 25 0 35 -2 23 -4z"/>
<path d="M1010 11270 c0 -5 5 -10 10 -10 6 0 10 5 10 10 0 6 -4 10 -10 10 -5
0 -10 -4 -10 -10z"/>
<path d="M1110 11270 c0 -5 5 -10 10 -10 6 0 10 5 10 10 0 6 -4 10 -10 10 -5
0 -10 -4 -10 -10z"/>
<path d="M1200 11219 c0 -22 -5 -50 -11 -62 -10 -21 -10 -21 5 -3 14 18 23
106 11 106 -3 0 -5 -18 -5 -41z"/>
<path d="M1000 11226 c0 -13 7 -37 16 -52 l16 -29 -7 40 c-5 32 -4 38 6 28 7
-7 25 -13 39 -13 14 0 32 6 39 13 12 10 13 8 6 -8 -15 -41 -17 -55 -6 -55 6 0
11 9 11 19 0 11 5 23 10 26 14 8 13 42 -2 51 -6 4 -17 -1 -25 -11 -12 -17 -13
-17 -13 -2 0 20 -46 24 -53 5 -4 -10 -6 -10 -6 0 -2 23 -31 13 -31 -12z"/>
<path d="M2473 11215 c0 -22 2 -30 4 -17 2 12 2 30 0 40 -3 9 -5 -1 -4 -23z"/>
<path d="M932 11190 c0 -14 2 -19 5 -12 2 6 2 18 0 25 -3 6 -5 1 -5 -13z"/>
<path d="M2740 11174 c0 -9 -15 -31 -34 -50 -19 -19 -30 -34 -26 -34 13 0 70
69 70 85 0 8 -2 15 -5 15 -3 0 -5 -7 -5 -16z"/>
<path d="M990 11165 c0 -8 2 -15 4 -15 2 0 6 7 10 15 3 8 1 15 -4 15 -6 0 -10
-7 -10 -15z"/>
<path d="M1130 11171 c0 -6 5 -13 10 -16 6 -3 10 1 10 9 0 9 -4 16 -10 16 -5
0 -10 -4 -10 -9z"/>
<path d="M952 11141 c8 -14 25 -31 39 -39 l24 -14 -22 18 c-12 11 -30 28 -39
39 -15 19 -16 19 -2 -4z"/>
<path d="M2501 11133 c16 -26 75 -60 85 -50 4 4 0 7 -9 7 -9 0 -33 15 -53 32
-27 24 -33 27 -23 11z"/>
<path d="M1150 11109 c-22 -18 -22 -19 -3 -10 12 6 25 16 28 21 9 15 3 12 -25
-11z"/>
<path d="M1028 11083 c7 -3 16 -2 19 1 4 3 -2 6 -13 5 -11 0 -14 -3 -6 -6z"/>
<path d="M1098 11083 c7 -3 16 -2 19 1 4 3 -2 6 -13 5 -11 0 -14 -3 -6 -6z"/>
<path d="M2638 11083 c7 -3 16 -2 19 1 4 3 -2 6 -13 5 -11 0 -14 -3 -6 -6z"/>
<path d="M863 10873 c114 -2 300 -2 415 0 114 1 20 2 -208 2 -228 0 -322 -1
-207 -2z"/>
<path d="M2437 10873 c94 -2 252 -2 350 0 98 1 21 2 -172 2 -192 1 -273 -1
-178 -2z"/>
<path d="M1141 10754 c0 -11 3 -14 6 -6 3 7 2 16 -1 19 -3 4 -6 -2 -5 -13z"/>
<path d="M2110 10750 c0 -5 5 -10 10 -10 6 0 10 5 10 10 0 6 -4 10 -10 10 -5
0 -10 -4 -10 -10z"/>
<path d="M2320 10749 c0 -5 5 -7 10 -4 6 3 10 8 10 11 0 2 -4 4 -10 4 -5 0
-10 -5 -10 -11z"/>
<path d="M2588 10673 c7 -3 16 -2 19 1 4 3 -2 6 -13 5 -11 0 -14 -3 -6 -6z"/>
<path d="M783 10101 c1 -14 9 -26 17 -28 10 -3 11 -2 4 4 -7 4 -14 17 -17 28
-5 16 -5 15 -4 -4z"/>
<path d="M871 10098 c-1 -21 4 -28 17 -28 11 0 13 3 6 8 -7 4 -14 16 -17 27
-4 15 -5 14 -6 -7z"/>
<path d="M912 10095 c0 -16 2 -22 5 -12 2 9 2 23 0 30 -3 6 -5 -1 -5 -18z"/>
<path d="M933 10110 c2 -8 10 -15 17 -15 7 0 15 7 17 15 4 13 3 13 -6 0 -10
-13 -12 -13 -22 0 -9 13 -10 13 -6 0z"/>
<path d="M1008 10113 c7 -3 16 -2 19 1 4 3 -2 6 -13 5 -11 0 -14 -3 -6 -6z"/>
<path d="M1053 10113 c9 -2 17 -13 17 -24 0 -20 24 -26 35 -9 3 6 -1 7 -9 4
-11 -4 -16 0 -16 11 0 11 5 15 16 11 8 -3 12 -2 9 4 -3 6 -21 9 -38 9 -18 -1
-24 -3 -14 -6z"/>
<path d="M1133 10104 c-3 -8 -1 -20 5 -26 8 -8 9 -5 6 10 -4 14 0 22 13 25 17
4 17 5 0 6 -10 0 -20 -6 -24 -15z"/>
<path d="M1210 10109 c0 -6 -7 -9 -15 -5 -9 3 -15 0 -15 -10 0 -9 5 -12 11 -8
6 3 15 0 20 -7 6 -10 9 -6 9 14 0 15 -2 27 -5 27 -3 0 -5 -5 -5 -11z"/>
<path d="M1236 10111 c-4 -5 4 -7 16 -3 18 4 20 2 15 -18 -4 -16 -3 -20 5 -12
6 6 8 18 5 26 -7 17 -32 21 -41 7z"/>
<path d="M1318 10113 c7 -3 16 -2 19 1 4 3 -2 6 -13 5 -11 0 -14 -3 -6 -6z"/>
<path d="M1452 10090 c0 -19 2 -27 5 -17 2 9 2 25 0 35 -3 9 -5 1 -5 -18z"/>
<path d="M1480 10095 c0 -15 6 -25 14 -25 22 0 30 19 11 26 -13 6 -14 8 -3 15
10 7 9 9 -4 9 -13 0 -18 -8 -18 -25z"/>
<path d="M1538 10113 c7 -3 16 -2 19 1 4 3 -2 6 -13 5 -11 0 -14 -3 -6 -6z"/>
<path d="M1650 10095 c0 -24 1 -24 19 -8 21 18 19 33 -5 33 -8 0 -14 -10 -14
-25z"/>
<path d="M1709 10112 c10 -7 10 -11 1 -14 -9 -3 -8 -7 2 -16 12 -10 14 -8 13
10 -1 12 -8 24 -16 26 -12 3 -12 2 0 -6z"/>
<path d="M1768 10113 c7 -3 16 -2 19 1 4 3 -2 6 -13 5 -11 0 -14 -3 -6 -6z"/>
<path d="M1838 10103 c24 -12 30 -18 20 -24 -9 -6 -9 -9 -1 -9 20 0 26 20 8
26 -11 5 -13 9 -5 14 6 4 -4 7 -22 8 l-33 1 33 -16z"/>
<path d="M1902 10090 c0 -19 2 -27 5 -17 2 9 2 25 0 35 -3 9 -5 1 -5 -18z"/>
<path d="M1930 10095 c0 -23 3 -27 10 -15 9 13 11 13 20 0 7 -12 10 -8 10 15
0 23 -3 27 -10 15 -9 -13 -11 -13 -20 0 -7 12 -10 8 -10 -15z"/>
<path d="M2039 10112 c9 -7 10 -11 2 -15 -7 -4 -8 -5 0 -3 15 2 13 20 -3 24
-10 3 -10 2 1 -6z"/>
<path d="M2079 10112 c11 -8 11 -10 0 -15 -10 -4 -8 -6 4 -6 21 -1 18 21 -4
27 -12 3 -12 2 0 -6z"/>
<path d="M2161 10094 c1 -17 3 -22 6 -11 2 9 8 15 13 12 5 -3 12 0 16 7 4 7 4
10 -1 6 -4 -4 -14 -3 -22 3 -10 9 -13 6 -12 -17z"/>
<path d="M2228 10113 c7 -3 16 -2 19 1 4 3 -2 6 -13 5 -11 0 -14 -3 -6 -6z"/>
<path d="M2291 10104 c0 -11 3 -14 6 -6 3 7 2 16 -1 19 -3 4 -6 -2 -5 -13z"/>
<path d="M2313 10104 c-3 -8 -1 -20 5 -26 8 -8 9 -5 5 11 -4 15 -1 21 12 21
13 0 16 -6 12 -21 -4 -16 -3 -19 5 -11 14 14 3 42 -17 42 -9 0 -18 -7 -22 -16z"/>
<path d="M2370 10100 c0 -13 5 -18 15 -14 8 4 15 12 15 20 0 8 -7 14 -15 14
-8 0 -15 -9 -15 -20z"/>
<path d="M2412 10095 c0 -16 2 -22 5 -12 2 9 2 23 0 30 -3 6 -5 -1 -5 -18z"/>
<path d="M2438 10113 c7 -3 16 -2 19 1 4 3 -2 6 -13 5 -11 0 -14 -3 -6 -6z"/>
<path d="M2522 10090 c0 -19 2 -27 5 -17 2 9 2 25 0 35 -3 9 -5 1 -5 -18z"/>
<path d="M2603 10103 c-3 -8 -1 -19 5 -25 8 -8 9 -5 5 11 -4 15 -1 21 12 21
12 0 16 -6 12 -20 -3 -11 -1 -18 4 -14 5 3 9 11 9 19 0 7 8 15 18 18 9 2 0 4
-21 4 -25 1 -40 -4 -44 -14z"/>
<path d="M2700 10095 c0 -25 23 -35 35 -15 3 6 -1 7 -9 4 -11 -4 -16 0 -16 11
0 11 5 15 16 11 8 -3 12 -2 9 4 -12 20 -35 10 -35 -15z"/>
<path d="M2750 10095 c0 -17 5 -25 18 -25 13 0 14 2 4 9 -8 4 -14 12 -14 16 0
4 6 12 14 16 10 7 9 9 -4 9 -13 0 -18 -8 -18 -25z"/>
<path d="M2803 10107 c4 -10 1 -17 -6 -18 -19 -1 26 -18 48 -18 11 1 14 3 8 6
-7 2 -13 14 -14 26 -1 20 -2 20 -9 -3 -5 -16 -8 -19 -9 -8 -1 9 -6 20 -13 24
-8 5 -9 2 -5 -9z"/>
<path d="M2870 10113 c1 -13 30 -48 30 -36 0 7 -5 15 -11 19 -8 4 -7 9 2 15
11 7 10 9 -3 9 -10 0 -18 -3 -18 -7z"/>
<path d="M830 10106 c0 -2 8 -10 18 -17 15 -13 16 -12 3 4 -13 16 -21 21 -21
13z"/>
<path d="M982 10090 c0 -14 2 -19 5 -12 2 6 2 18 0 25 -3 6 -5 1 -5 -13z"/>
<path d="M1035 10091 c-6 -11 13 -26 22 -17 4 3 0 6 -8 6 -11 0 -11 2 1 10 9
6 10 10 3 10 -6 0 -14 -4 -18 -9z"/>
<path d="M1400 10096 c0 -2 7 -7 16 -10 8 -3 12 -2 9 4 -6 10 -25 14 -25 6z"/>
<path d="M1570 10096 c0 -2 7 -7 16 -10 8 -3 12 -2 9 4 -6 10 -25 14 -25 6z"/>
<path d="M1980 10089 c0 -3 9 -9 19 -12 13 -3 18 0 15 7 -5 13 -34 18 -34 5z"/>
<path d="M2568 10093 c7 -3 16 -2 19 1 4 3 -2 6 -13 5 -11 0 -14 -3 -6 -6z"/>
<path d="M1538 10073 c7 -3 16 -2 19 1 4 3 -2 6 -13 5 -11 0 -14 -3 -6 -6z"/>
<path d="M2438 10073 c7 -3 16 -2 19 1 4 3 -2 6 -13 5 -11 0 -14 -3 -6 -6z"/>
<path d="M221 9650 c0 -110 3 -180 9 -180 6 0 5 -9 -2 -20 -16 -25 -7 -33 24
-21 26 10 38 44 38 100 l-1 26 -14 -25 c-8 -14 -15 -34 -15 -45 -1 -15 -28 61
-30 85 0 3 10 11 23 19 12 7 19 10 15 6 -7 -7 20 -41 27 -34 2 2 6 16 10 32 5
19 3 27 -6 27 -9 1 -8 4 4 11 10 6 17 22 17 39 0 17 5 30 10 30 6 0 10 10 10
23 0 13 13 35 28 50 27 26 34 28 154 31 148 4 200 -3 234 -34 31 -31 31 -48
-3 -53 -28 -4 -28 -4 3 -6 16 0 35 -6 40 -11 20 -20 44 13 50 73 l6 57 -315 0
-316 0 0 -180z"/>
<path d="M868 9785 c-3 -47 0 -53 20 -33 17 17 16 78 -2 78 -9 0 -15 -15 -18
-45z"/>
<path d="M1070 9375 l0 -455 45 0 c37 0 45 3 45 19 0 28 49 44 143 46 45 1 89
5 97 8 8 3 36 5 61 4 70 -1 137 22 175 60 36 36 41 52 24 84 -9 15 -22 19 -65
19 -42 0 -55 3 -55 15 0 13 -20 15 -120 15 -115 0 -120 -1 -120 -21 0 -19 -5
-20 -57 -17 -43 3 -61 0 -70 -12 -10 -13 -15 -12 -39 12 -35 34 -27 46 8 13
21 -19 27 -21 32 -9 8 21 -14 64 -49 96 -19 18 -23 26 -12 22 17 -6 17 -4 -2
30 -24 42 -23 43 21 17 17 -11 33 -30 35 -43 10 -62 86 -80 293 -68 80 5 153
12 163 15 18 7 49 58 45 72 -1 4 12 23 30 40 19 18 30 38 27 43 -4 7 -11 7
-18 2 -7 -5 -20 -10 -29 -11 -39 -3 -48 -5 -48 -10 0 -3 -96 -5 -214 -4 -227
2 -262 8 -286 52 -8 16 -4 26 18 52 15 18 21 30 15 25 -23 -13 -13 9 11 26 21
15 25 15 30 3 6 -17 117 -19 216 -5 l55 8 -68 -1 c-49 0 -72 4 -78 14 -9 15
-2 52 12 57 5 2 9 10 9 18 0 13 10 17 70 28 14 3 -15 3 -63 1 -67 -2 -93 -7
-110 -21 -14 -12 -12 -8 5 10 26 28 27 29 151 30 69 0 123 4 120 9 -2 4 -38 7
-79 7 -74 0 -74 0 -75 28 -2 23 -2 24 -6 5 -4 -19 -11 -23 -39 -23 -38 0 -40
6 -19 56 8 20 12 41 8 47 -4 6 -1 7 6 2 9 -5 12 0 9 16 -3 22 -9 24 -63 27
l-60 3 27 -28 c17 -19 24 -34 19 -46 -6 -17 -8 -17 -36 4 -48 36 -49 37 -35
54 11 13 5 15 -49 15 l-61 0 0 -455z m149 251 c6 -35 5 -50 -5 -60 -7 -8 -11
-16 -9 -18 3 -3 -2 -5 -10 -5 -13 0 -13 3 -1 16 8 10 12 35 10 70 -4 64 3 63
15 -3z m218 -302 c-3 -3 -12 -4 -19 -1 -8 3 -5 6 6 6 11 1 17 -2 13 -5z m63
-164 c0 -5 8 -11 18 -13 9 -3 -35 -5 -98 -5 -113 0 -115 1 -27 23 10 2 15 0
12 -6 -4 -5 14 -9 41 -9 40 0 45 2 34 15 -11 13 -10 14 4 9 9 -3 16 -10 16
-14z m-235 -38 c-3 -3 -11 0 -18 7 -9 10 -8 11 6 5 10 -3 15 -9 12 -12z"/>
<path d="M1360 9808 c0 -12 3 -18 7 -14 11 10 12 36 2 36 -5 0 -9 -10 -9 -22z"/>
<path d="M1730 9805 c0 -25 14 -34 24 -16 8 12 -3 41 -15 41 -5 0 -9 -11 -9
-25z"/>
<path d="M1640 9790 c0 -5 -5 -9 -11 -7 -6 1 -14 -4 -16 -10 -3 -7 0 -13 6
-13 16 0 13 -56 -4 -70 -8 -7 -12 -17 -8 -23 3 -5 1 -7 -5 -4 -5 4 -21 3 -34
-2 -12 -6 -17 -10 -10 -10 6 -1 12 -10 12 -21 0 -23 22 -23 32 0 5 11 7 8 8
-10 2 -14 2 -29 1 -34 -1 -4 3 -14 9 -21 6 -7 9 -19 8 -26 -2 -10 11 -15 45
-17 26 -2 47 -7 47 -13 0 -20 28 -7 32 15 5 25 -1 29 -64 50 -11 3 -17 14 -17
28 l2 23 4 -22 c2 -13 8 -23 13 -23 5 0 7 7 4 15 -4 8 -1 15 4 15 6 0 13 -8
16 -17 3 -12 4 -9 4 7 -1 24 3 40 22 85 5 11 10 32 13 48 4 23 1 27 -19 27
-13 0 -34 -11 -48 -25 -38 -38 -49 -33 -42 20 4 25 5 45 2 45 -3 0 -6 -4 -6
-10z m20 -140 c0 -5 -5 -10 -11 -10 -5 0 -7 5 -4 10 3 6 8 10 11 10 2 0 4 -4
4 -10z m-3 -65 c0 -8 -9 -15 -20 -15 -16 0 -17 3 -7 15 7 8 16 15 20 15 3 0 7
-7 7 -15z"/>
<path d="M1550 9720 c0 -11 5 -20 10 -20 6 0 10 9 10 20 0 11 -4 20 -10 20 -5
0 -10 -9 -10 -20z"/>
<path d="M378 9713 c7 -3 16 -2 19 1 4 3 -2 6 -13 5 -11 0 -14 -3 -6 -6z"/>
<path d="M1490 9709 c0 -5 -4 -7 -10 -4 -5 3 -10 -1 -10 -9 0 -9 7 -16 15 -16
8 0 15 9 15 20 0 11 -2 20 -5 20 -3 0 -5 -5 -5 -11z"/>
<path d="M383 9683 c-34 -3 -44 -9 -48 -26 -9 -41 -25 -141 -25 -154 0 -20 18
-16 25 5 4 16 17 19 73 21 65 2 66 1 44 -15 -15 -10 -37 -15 -63 -12 -22 2
-38 -1 -36 -6 2 -5 94 -11 218 -13 176 -3 217 -1 233 11 10 9 15 20 10 27 -4
7 -9 29 -10 49 -2 20 -7 55 -12 76 l-8 39 -179 1 c-99 0 -199 -1 -222 -3z m63
-41 c-4 -3 -14 2 -24 12 -16 18 -16 18 6 6 13 -6 21 -14 18 -18z m255 9 c-7
-5 -11 -13 -7 -19 8 -14 -11 -25 -30 -18 -22 9 1 46 29 46 16 0 18 -3 8 -9z
m-107 -31 c7 -7 -5 -10 -38 -10 -27 0 -45 4 -41 10 3 5 13 6 22 3 11 -4 14 -2
9 5 -8 14 33 7 48 -8z m183 -12 c-3 -8 -6 -5 -6 6 -1 11 2 17 5 13 3 -3 4 -12
1 -19z m16 -38 c3 -11 1 -18 -4 -14 -5 3 -9 12 -9 20 0 20 7 17 13 -6z m-175
-66 c-9 -8 -106 -9 -114 -1 -4 4 21 7 56 7 35 0 61 -3 58 -6z"/>
<path d="M883 9653 c-7 -3 -13 -20 -13 -39 0 -22 -5 -34 -14 -34 -20 0 -28
-28 -20 -77 3 -23 6 -45 5 -48 -1 -3 10 -16 24 -28 22 -19 27 -34 34 -102 l8
-80 2 102 c0 56 -3 104 -7 107 -5 3 -8 20 -7 38 10 174 10 169 -12 161z m-13
-108 c0 -14 -2 -25 -4 -25 -2 0 -6 11 -8 25 -3 14 -1 25 3 25 5 0 9 -11 9 -25z"/>
<path d="M811 9634 c0 -11 3 -14 6 -6 3 7 2 16 -1 19 -3 4 -6 -2 -5 -13z"/>
<path d="M1733 9636 c-10 -11 -9 -15 2 -20 10 -4 15 1 15 14 0 23 -1 24 -17 6z"/>
<path d="M2136 9611 c-8 -12 49 -24 88 -19 15 2 27 8 26 13 0 13 -106 19 -114
6z"/>
<path d="M2270 9610 c0 -6 29 -10 66 -10 41 0 63 4 59 10 -3 6 -33 10 -66 10
-33 0 -59 -4 -59 -10z"/>
<path d="M2420 9610 c0 -10 87 -6 98 4 3 4 -18 6 -46 6 -29 0 -52 -4 -52 -10z"/>
<path d="M2578 9613 c6 -2 18 -2 25 0 6 3 1 5 -13 5 -14 0 -19 -2 -12 -5z"/>
<path d="M2990 9611 c0 -13 20 -18 69 -17 26 1 46 6 48 14 4 9 -12 12 -56 12
-34 0 -61 -4 -61 -9z"/>
<path d="M3120 9610 c0 -6 28 -10 65 -10 37 0 65 4 65 10 0 6 -28 10 -65 10
-37 0 -65 -4 -65 -10z"/>
<path d="M3270 9610 c0 -9 99 -4 109 5 2 3 -21 5 -52 5 -31 0 -57 -4 -57 -10z"/>
<path d="M3428 9613 c6 -2 18 -2 25 0 6 3 1 5 -13 5 -14 0 -19 -2 -12 -5z"/>
<path d="M2522 9583 c-18 -2 -30 -9 -27 -14 4 -5 0 -9 -9 -9 -8 0 -17 6 -19
13 -4 9 -6 9 -6 0 -1 -7 -8 -10 -16 -7 -8 4 -15 1 -15 -5 0 -6 -10 -10 -22
-10 -17 1 -19 2 -5 6 23 6 22 23 -3 23 -10 0 -24 -8 -29 -17 -6 -10 -11 -13
-11 -6 0 8 -41 11 -146 11 -80 0 -140 -4 -133 -8 8 -6 4 -9 -12 -12 -24 -3
-24 -4 6 -21 24 -15 26 -17 8 -14 -30 7 -39 -9 -14 -22 24 -13 34 -14 27 -2
-3 5 1 11 8 14 8 3 16 1 18 -5 3 -7 48 -13 122 -16 82 -3 117 -1 112 6 -3 6
-37 10 -74 10 -109 0 -136 2 -129 8 11 11 237 3 265 -9 44 -18 79 -52 76 -71
-4 -28 -11 -29 -18 -1 -5 21 -12 25 -41 25 -39 0 -42 -4 -19 -27 13 -13 13
-17 2 -24 -12 -8 16 -13 59 -12 7 1 11 -2 8 -6 -5 -9 31 -41 39 -34 3 3 -2 12
-12 19 -16 12 -16 13 0 19 9 4 30 -1 48 -10 27 -14 31 -20 28 -53 -4 -44 -32
-56 -54 -23 -19 26 -51 27 -78 2 -19 -17 -34 -18 -168 -14 -111 4 -148 9 -152
19 -3 8 -1 14 4 14 6 0 10 5 10 12 0 9 -3 9 -12 0 -7 -7 -24 -12 -39 -12 -15
0 -32 -7 -39 -15 -9 -11 -27 -15 -58 -13 l-45 3 2 75 c2 47 9 88 21 112 21 43
18 48 -28 41 l-33 -5 2 -112 c2 -155 6 -176 33 -176 13 0 26 -3 30 -7 11 -11
65 -12 72 -2 3 5 20 9 37 8 31 -1 31 -1 7 -9 -17 -5 4 -8 65 -9 50 -1 110 -7
134 -15 l45 -13 -33 -6 c-19 -4 -82 -7 -142 -7 -60 0 -117 -4 -127 -9 -9 -5
-29 -14 -45 -22 -19 -9 -24 -15 -15 -21 7 -4 152 -8 321 -8 l308 0 -2 144 c-1
130 -3 144 -17 140 -15 -5 -15 -4 1 9 14 11 17 30 17 101 l0 86 -27 -2 c-16 0
-43 -3 -61 -5z"/>
<path d="M3383 9583 c-18 -2 -33 -9 -33 -14 0 -6 -14 -7 -35 -3 -23 4 -35 2
-35 -5 0 -6 -10 -10 -22 -10 -17 1 -19 2 -5 6 23 6 22 23 -3 23 -10 0 -24 -8
-29 -17 -6 -10 -11 -13 -11 -6 0 14 -270 15 -270 1 0 -4 -10 -8 -22 -8 -18 -1
-13 -6 22 -25 25 -13 41 -25 35 -26 -31 -5 83 -18 155 -18 67 0 80 2 60 10
-14 6 -45 10 -70 9 -76 -3 -110 0 -110 8 0 5 261 -1 266 -7 1 0 18 -14 39 -31
21 -16 34 -30 29 -30 -5 0 -4 -4 2 -8 9 -5 8 -11 -2 -20 -12 -11 -14 -10 -14
3 0 9 -4 13 -10 10 -6 -3 -7 1 -4 9 5 13 -1 16 -30 16 -35 0 -36 -1 -30 -27 9
-35 5 -32 46 -35 20 -2 35 -5 34 -8 -5 -9 33 -39 39 -30 3 4 1 10 -4 12 -4 1
-11 14 -15 28 -4 14 -4 21 1 15 4 -5 25 -18 46 -27 34 -16 37 -21 37 -58 0
-35 -3 -40 -23 -40 -12 0 -28 9 -35 20 -16 26 -58 26 -74 1 -11 -18 -21 -19
-157 -14 -103 4 -151 10 -162 19 -21 19 -68 18 -75 -1 -4 -11 -21 -15 -55 -15
l-49 0 0 70 c0 39 4 70 10 70 5 0 7 6 4 14 -3 8 2 29 11 46 20 38 16 44 -24
35 l-31 -7 0 -145 0 -145 29 4 c17 2 28 1 25 -4 -6 -9 -1 -10 45 -12 16 0 27
2 24 7 -2 4 3 7 11 7 9 0 16 -4 16 -10 0 -6 38 -10 93 -10 98 0 191 -21 146
-33 -13 -4 -79 -7 -146 -7 -81 0 -123 -4 -123 -11 0 -6 -9 -8 -21 -4 -14 5
-25 2 -30 -6 -4 -8 -13 -14 -19 -14 -5 0 -10 -4 -10 -10 0 -6 115 -11 320 -13
l320 -3 -1 241 -1 240 -21 -2 c-12 0 -37 -3 -54 -5z m-86 -165 c-3 -8 -6 -5
-6 6 -1 11 2 17 5 13 3 -3 4 -12 1 -19z m-50 -214 c-3 -3 -12 -4 -19 -1 -8 3
-5 6 6 6 11 1 17 -2 13 -5z"/>
<path d="M1555 9520 c-27 -7 -25 -8 18 -9 26 0 47 4 47 9 0 11 -21 11 -65 0z"/>
<path d="M2913 9503 c9 -2 15 -8 13 -12 -3 -4 1 -8 9 -8 8 0 16 6 19 14 4 9
-4 13 -27 12 -18 -1 -24 -3 -14 -6z"/>
<path d="M1990 9443 c0 -16 -2 -16 -11 -3 -9 12 -10 12 -5 -3 3 -10 6 -25 6
-33 0 -8 10 -14 26 -14 19 0 25 -4 20 -15 -4 -12 3 -15 34 -15 48 0 54 19 8
21 l-33 1 30 7 c36 9 55 4 55 -15 0 -8 7 -14 16 -14 8 0 12 5 9 10 -6 10 6 11
155 14 l75 1 0 35 0 35 -65 1 c-36 1 -55 0 -42 -3 24 -5 31 -23 8 -23 -8 0
-16 -10 -18 -22 -4 -20 -6 -18 -14 12 l-10 35 -64 0 c-60 0 -65 -2 -71 -25
l-7 -25 -1 28 c-1 26 -3 27 -51 27 -41 0 -50 -3 -50 -17z m240 -3 c0 -5 -13
-10 -30 -10 -16 0 -30 5 -30 10 0 6 14 10 30 10 17 0 30 -4 30 -10z m-70 -18
c0 -4 -9 -8 -20 -9 -11 -1 -20 2 -20 5 0 4 9 8 20 9 11 1 20 -2 20 -5z"/>
<path d="M2840 9436 c0 -15 -1 -29 -2 -33 -2 -5 7 -9 20 -11 12 -2 22 -7 22
-12 0 -5 -8 -7 -17 -4 -15 5 -16 4 -3 -5 19 -14 90 -14 90 -1 0 6 -15 11 -32
11 l-33 2 35 6 c43 9 60 4 53 -15 -3 -8 1 -14 11 -14 9 0 16 6 16 13 0 9 11
12 35 9 46 -5 65 11 56 46 -7 25 -11 27 -69 30 -62 3 -62 3 -63 -25 l-1 -28
-7 25 c-6 22 -13 25 -59 28 -50 3 -52 2 -52 -22z m240 4 c0 -5 -13 -10 -30
-10 -16 0 -30 5 -30 10 0 6 14 10 30 10 17 0 30 -4 30 -10z m-60 -20 c10 -6 5
-9 -18 -8 -18 1 -32 5 -32 10 0 11 31 10 50 -2z"/>
<path d="M3123 9453 c27 -4 39 -23 14 -23 -8 0 -19 -11 -25 -25 l-12 -25 66 0
65 0 -3 38 -3 37 -65 1 c-36 1 -53 0 -37 -3z m80 -40 c-7 -2 -21 -2 -30 0 -10
3 -4 5 12 5 17 0 24 -2 18 -5z"/>
<path d="M830 9386 c0 -20 -32 -26 -165 -27 -92 -2 -108 -4 -70 -9 31 -5 -6
-7 -100 -6 -96 1 -149 5 -148 11 1 6 -18 10 -43 10 l-44 0 0 -62 0 -62 35 -7
c19 -3 46 -3 60 0 14 4 25 2 25 -4 0 -6 69 -10 195 -10 107 0 195 3 195 8 0 4
22 7 50 8 27 0 53 4 57 7 3 4 8 32 11 62 4 54 4 55 -22 55 -14 0 -26 5 -26 10
0 6 9 10 20 10 11 0 20 5 20 10 0 6 -11 10 -25 10 -15 0 -25 -6 -25 -14z m-43
-42 c-3 -3 -12 -4 -19 -1 -8 3 -5 6 6 6 11 1 17 -2 13 -5z m-472 -13 c3 -5 0
-13 -6 -17 -7 -4 -9 -3 -5 4 3 5 0 13 -6 15 -9 4 -10 6 -1 6 6 1 14 -3 18 -8z
m546 -14 c-10 -9 -11 -8 -5 6 3 10 9 15 12 12 3 -3 0 -11 -7 -18z m-404 -73
c-3 -3 -12 -4 -19 -1 -8 3 -5 6 6 6 11 1 17 -2 13 -5z"/>
<path d="M653 9373 c15 -2 37 -2 50 0 12 2 0 4 -28 4 -27 0 -38 -2 -22 -4z"/>
<path d="M758 9373 c7 -3 16 -2 19 1 4 3 -2 6 -13 5 -11 0 -14 -3 -6 -6z"/>
<path d="M897 9224 c-7 -19 -17 -22 -95 -25 -48 -2 -186 -3 -307 -2 -199 2
-222 0 -232 -15 -6 -10 -7 -26 -2 -38 8 -22 62 -34 162 -34 26 0 47 -4 47 -10
0 -5 -19 -10 -42 -10 -50 0 -41 -16 12 -23 32 -3 1 -7 -119 -12 -29 -1 -40
-22 -17 -31 12 -5 13 -11 6 -24 -6 -10 -10 -32 -10 -49 l0 -31 299 0 299 0 7
63 c8 82 2 269 -8 241z m-137 -48 c0 -2 -8 -10 -17 -17 -16 -13 -17 -12 -4 4
13 16 21 21 21 13z m-297 -53 c-7 -2 -21 -2 -30 0 -10 3 -4 5 12 5 17 0 24 -2
18 -5z m405 -25 c-25 -32 -28 -33 -104 -35 -78 -1 -78 -1 -39 12 l40 13 -36 1
c-73 2 -48 16 48 27 54 6 102 12 107 13 5 0 -3 -14 -16 -31z m-190 -33 c-3 -3
-9 2 -12 12 -6 14 -5 15 5 6 7 -7 10 -15 7 -18z"/>
<path d="M1685 9200 c-10 -11 -13 -20 -8 -20 13 0 38 29 31 35 -3 3 -13 -4
-23 -15z"/>
<path d="M407 8482 c-22 -24 -21 -45 1 -65 27 -24 283 -25 306 -1 21 21 20 47
-2 67 -15 14 -42 17 -154 17 -118 0 -137 -2 -151 -18z m81 -30 c2 -7 -3 -12
-12 -12 -9 0 -16 7 -16 16 0 17 22 14 28 -4z m72 1 c0 -16 -12 -17 -28 -1 -9
9 -12 9 -12 0 0 -16 -17 -15 -23 1 -4 10 5 14 29 14 22 0 34 -5 34 -14z m94 1
c3 -9 -2 -14 -14 -14 -11 0 -20 6 -20 13 0 9 -3 8 -9 -2 -5 -7 -14 -10 -20 -7
-18 11 -6 21 27 22 18 1 33 -4 36 -12z"/>
<path d="M1262 8488 c-15 -15 -15 -61 0 -76 8 -8 57 -12 153 -12 151 0 165 4
165 50 0 46 -14 50 -165 50 -96 0 -145 -4 -153 -12z m77 -30 c11 -11 12 -10 6
1 -5 9 -3 12 5 9 28 -9 22 -28 -7 -26 -17 1 -30 8 -30 15 0 16 9 17 26 1z m74
-5 c-7 -18 -30 -16 -37 2 -4 11 1 14 18 13 15 -1 22 -7 19 -15z m53 6 c-4 6 4
9 22 8 43 -3 28 -25 -15 -23 -21 0 -38 7 -41 14 -3 11 0 12 18 2 14 -7 20 -8
16 -1z"/>
<path d="M2112 8468 c-7 -7 -12 -24 -12 -38 0 -46 14 -50 165 -50 151 0 165 4
165 50 0 46 -14 50 -165 50 -96 0 -145 -4 -153 -12z m68 -30 c0 -10 2 -10 8
-1 8 13 58 11 72 -3 5 -5 -14 -10 -46 -11 -42 -2 -54 0 -54 12 0 8 5 15 10 15
6 0 10 -6 10 -12z m147 -3 c0 -9 -10 -15 -24 -15 -12 0 -23 6 -23 13 0 7 11
14 23 15 15 1 24 -4 24 -13z m43 -6 c0 -5 -7 -9 -15 -9 -15 0 -20 12 -9 23 8
8 24 -1 24 -14z"/>
<path d="M2966 8464 c-21 -21 -20 -47 2 -67 15 -14 42 -17 154 -17 118 0 137
2 151 18 21 23 22 46 1 66 -23 23 -285 23 -308 0z m88 -26 c-6 -10 -4 -10 7 0
17 16 26 15 26 -3 0 -10 -11 -15 -34 -15 -23 0 -33 5 -33 15 0 8 9 15 21 15
13 0 18 -4 13 -12z m63 -3 c0 -8 -4 -15 -9 -15 -10 0 -11 14 -1 23 9 10 10 9
10 -8z m57 2 c-6 -8 -3 -8 9 1 9 8 21 11 27 7 22 -13 8 -22 -35 -22 -48 0 -64
21 -19 25 18 1 23 -2 18 -11z"/>
<path d="M2894 7846 c-18 -8 -34 -24 -37 -37 -5 -22 -5 -22 7 -6 17 21 32 22
40 0 6 -14 8 -15 19 0 6 8 21 17 31 19 19 3 19 4 2 21 -21 20 -22 20 -62 3z"/>
<path d="M2985 7830 c10 -19 24 -30 38 -31 12 -1 46 -3 75 -5 51 -4 52 -3 35
15 -29 30 -79 51 -123 51 l-41 0 16 -30z"/>
<path d="M2187 7840 c-50 -6 -63 -13 -91 -44 -19 -20 -31 -36 -29 -36 3 0 0
-7 -7 -15 -11 -13 -1 -15 81 -14 52 1 108 5 124 9 l30 8 -30 1 -30 2 37 15
c33 14 47 35 48 72 0 13 -39 14 -133 2z m-17 -82 c0 -6 -2 -9 -6 -6 -3 3 -21
2 -40 -2 -32 -7 -48 3 -21 13 24 10 67 7 67 -5z m60 2 c0 -5 -4 -10 -10 -10
-5 0 -10 5 -10 10 0 6 5 10 10 10 6 0 10 -4 10 -10z"/>
<path d="M2340 7789 c-7 -27 -10 -52 -7 -55 8 -8 47 19 47 33 0 22 18 14 23
-9 4 -20 4 -20 6 4 2 41 -16 78 -38 78 -15 0 -22 -12 -31 -51z"/>
<path d="M2420 7827 c0 -30 13 -47 35 -47 13 0 26 -6 29 -12 4 -7 4 2 1 21 -6
41 -3 38 -38 46 -21 6 -27 4 -27 -8z"/>
<path d="M2490 7818 c0 -21 14 -35 33 -35 11 0 16 6 12 14 -3 8 -5 19 -5 24 0
5 -9 9 -20 9 -11 0 -20 -6 -20 -12z"/>
<path d="M395 7810 c-9 -14 -21 -139 -17 -177 2 -25 7 -31 20 -27 15 5 14 4
-1 -9 -18 -15 -18 -16 2 -26 19 -11 21 -8 27 40 4 28 12 53 18 55 7 3 11 19
10 37 -1 28 -1 29 3 3 4 -27 7 -28 41 -22 20 3 38 10 40 16 2 6 42 10 98 10
69 0 94 3 94 13 0 23 -15 35 -60 47 -25 6 -64 18 -87 27 -23 8 -46 12 -52 8
-6 -3 -11 -1 -11 4 0 14 -117 15 -125 1z m72 -42 c-3 -7 -5 -2 -5 12 0 14 2
19 5 13 2 -7 2 -19 0 -25z m-37 -68 c18 -12 2 -12 -25 0 -13 6 -15 9 -5 9 8 0
22 -4 30 -9z"/>
<path d="M1314 7774 c-10 -27 -20 -40 -24 -33 -6 8 -9 8 -14 0 -9 -14 2 -33
14 -26 13 8 34 -36 32 -67 -1 -16 3 -28 9 -28 8 0 8 -4 -1 -14 -9 -11 -18 -13
-37 -5 -32 12 -37 7 -29 -26 l6 -25 145 0 145 0 0 37 c0 34 -1 35 -18 20 -10
-10 -26 -17 -35 -17 -19 0 -23 25 -7 35 6 4 8 21 4 42 -6 32 -5 35 10 30 10
-4 24 -1 32 7 18 18 18 40 1 33 -9 -3 -17 10 -25 39 l-12 44 -89 0 -89 0 -18
-46z"/>
<path d="M2962 7794 c-11 -12 -8 -14 15 -14 15 0 24 4 18 8 -5 4 -12 10 -15
14 -3 3 -11 0 -18 -8z"/>
<path d="M3039 7756 c15 -17 88 -19 98 -2 3 6 3 8 -1 4 -4 -3 -20 -3 -36 2
-18 5 -32 4 -40 -3 -10 -9 -11 -9 -6 1 5 7 1 12 -10 12 -13 0 -14 -3 -5 -14z"/>
<path d="M3145 7741 c-2 -2 1 -9 8 -15 16 -16 142 -22 132 -6 -3 6 -12 10 -18
9 -32 -4 -38 5 -7 11 26 6 16 7 -38 6 -40 0 -75 -3 -77 -5z"/>
<path d="M2817 7714 c-11 -11 -8 -44 4 -44 21 0 4 -45 -18 -48 -21 -3 -23 -8
-23 -74 l0 -70 228 4 c240 3 261 7 305 55 17 19 16 21 -7 38 -20 16 -22 21
-13 39 7 11 20 27 30 34 21 16 22 42 1 42 -11 0 -14 -6 -9 -21 6 -19 5 -20
-17 -7 -12 7 -36 14 -53 15 -50 2 -52 5 -10 13 l40 7 -42 2 c-31 1 -43 -3 -43
-13 0 -13 -97 -52 -107 -43 -2 3 10 14 28 25 l32 20 -33 7 c-38 8 -53 -3 -48
-36 3 -23 8 -24 78 -27 62 -2 78 -6 88 -22 15 -24 10 -25 -91 -8 -81 13 -87
17 -108 73 -18 47 -49 55 -59 15 -6 -23 -10 -25 -63 -25 -33 0 -57 4 -57 11 0
17 -25 46 -33 38z m111 -70 c6 3 13 2 16 -3 7 -11 -17 -21 -55 -21 -22 0 -27
4 -22 16 3 8 12 13 19 10 8 -3 14 0 14 7 0 8 3 8 9 -2 5 -7 13 -11 19 -7z m72
-19 c-7 -9 -15 -13 -17 -11 -7 7 7 26 19 26 6 0 6 -6 -2 -15z m283 8 c-7 -2
-21 -2 -30 0 -10 3 -4 5 12 5 17 0 24 -2 18 -5z"/>
<path d="M2482 7699 c-12 -5 -22 -11 -22 -15 0 -3 8 -3 18 1 9 4 29 8 44 9 15
1 30 5 34 8 9 9 -47 7 -74 -3z"/>
<path d="M3398 7673 c12 -2 32 -2 45 0 12 2 2 4 -23 4 -25 0 -35 -2 -22 -4z"/>
<path d="M677 7650 c-14 -17 -15 -20 -2 -20 9 0 18 7 22 15 9 24 -1 27 -20 5z"/>
<path d="M2515 7627 c-9 -21 -23 -41 -31 -44 -13 -5 -13 -7 -2 -14 8 -6 0 -9
-24 -9 -20 0 -48 -4 -63 -10 -24 -9 -27 -7 -37 20 -14 40 -46 40 -61 0 -14
-36 -27 -39 -27 -5 0 19 -5 25 -22 26 -17 1 -19 2 -5 6 9 2 17 12 17 21 0 11
-3 13 -8 6 -18 -28 -99 -27 -89 1 4 9 -14 13 -74 14 -68 2 -78 0 -73 -13 5
-12 0 -16 -18 -16 -21 0 -23 -3 -20 -45 3 -30 9 -45 18 -45 16 0 38 -37 26
-44 -5 -3 -28 -8 -50 -12 -38 -6 -42 -9 -42 -35 l0 -28 108 0 c149 1 282 22
303 47 20 25 108 70 156 80 25 5 39 14 41 26 3 11 0 16 -7 12 -7 -5 -11 4 -11
26 1 31 1 32 15 14 15 -19 15 -19 15 5 0 13 -5 31 -10 39 -7 12 -12 7 -25 -23z
m-409 -87 c8 0 14 -7 14 -15 0 -16 -25 -21 -34 -6 -3 4 -17 6 -31 3 -19 -3
-25 0 -25 13 0 14 6 16 31 11 17 -3 38 -6 45 -6z m234 -21 c0 -30 -22 -64 -34
-52 -8 8 -8 68 1 76 16 17 33 5 33 -24z m-197 -26 c-7 -2 -19 -2 -25 0 -7 3
-2 5 12 5 14 0 19 -2 13 -5z"/>
<path d="M530 7618 c-12 -13 -28 -31 -37 -40 -15 -17 -15 -18 10 -18 14 0 43
12 64 26 21 15 30 24 21 21 -13 -5 -18 -1 -18 13 0 26 -15 25 -40 -2z"/>
<path d="M438 7553 c7 -3 16 -2 19 1 4 3 -2 6 -13 5 -11 0 -14 -3 -6 -6z"/>
<path d="M2582 7422 l-23 -18 22 -1 c12 -1 19 1 15 4 -3 3 -1 12 5 20 15 18 9
16 -19 -5z"/>
<path d="M1262 6998 c-19 -19 -15 -66 7 -78 11 -5 78 -10 150 -10 140 0 161 7
161 54 0 41 -16 46 -165 46 -96 0 -145 -4 -153 -12z m70 -33 c0 -5 -5 -11 -11
-13 -6 -2 -11 4 -11 13 0 9 5 15 11 13 6 -2 11 -8 11 -13z m30 0 c0 -5 -5 -11
-10 -13 -5 -1 -9 4 -9 13 0 9 4 14 9 13 5 -2 10 -8 10 -13z m46 3 c-7 -19 -35
-21 -35 -3 0 8 9 15 20 15 10 0 17 -5 15 -12z m105 -5 c-7 -17 -23 -17 -23 0
0 9 -2 9 -8 0 -9 -13 -44 -11 -49 3 -2 5 17 10 41 10 31 0 42 -4 39 -13z"/>
<path d="M2983 6980 c-34 -14 -41 -59 -13 -82 19 -15 41 -18 150 -18 109 0
131 3 150 18 30 24 21 68 -16 82 -32 12 -241 12 -271 0z m104 -45 c0 -10 -11
-15 -34 -15 -23 0 -33 5 -33 15 0 10 10 15 33 15 23 0 34 -5 34 -15z m30 0 c0
-8 -4 -15 -8 -15 -11 0 -20 16 -12 24 11 11 20 7 20 -9z m100 -2 c5 -13 -14
-12 -36 1 -10 6 -12 5 -7 -2 5 -8 -1 -11 -18 -10 -15 1 -26 7 -26 14 0 15 82
13 87 -3z"/>
<path d="M2118 6959 c-21 -12 -24 -59 -6 -77 8 -8 57 -12 153 -12 151 0 165 4
165 50 0 14 -5 31 -12 38 -15 15 -275 16 -300 1z m56 -34 c-4 -8 -8 -15 -10
-15 -2 0 -4 7 -4 15 0 8 4 15 10 15 5 0 7 -7 4 -15z m30 3 c-5 -9 -2 -8 9 1
10 8 20 11 24 7 3 -3 0 -6 -8 -6 -11 0 -11 -2 1 -10 11 -7 7 -10 -17 -10 -31
0 -41 9 -26 23 11 12 24 7 17 -5z m120 -3 c-7 -18 -44 -20 -44 -2 0 7 11 14
25 15 18 1 23 -2 19 -13z m32 -12 c-10 -10 -19 5 -10 18 6 11 8 11 12 0 2 -7
1 -15 -2 -18z"/>
<path d="M410 6940 c-24 -24 -25 -39 -6 -66 13 -17 29 -19 149 -22 126 -3 137
-2 156 17 27 27 27 56 -1 75 -18 13 -51 16 -150 16 -115 0 -130 -2 -148 -20z
m80 -30 c0 -5 -7 -10 -15 -10 -8 0 -15 5 -15 10 0 6 7 10 15 10 8 0 15 -4 15
-10z m30 0 c0 -5 -4 -10 -10 -10 -5 0 -10 5 -10 10 0 6 5 10 10 10 6 0 10 -4
10 -10z m40 0 c0 -5 -7 -10 -15 -10 -8 0 -15 5 -15 10 0 6 7 10 15 10 8 0 15
-4 15 -10z m50 0 c0 -5 -4 -10 -9 -10 -6 0 -13 5 -16 10 -3 6 1 10 9 10 9 0
16 -4 16 -10z m45 0 c3 -5 -3 -10 -14 -10 -12 0 -21 5 -21 10 0 6 6 10 14 10
8 0 18 -4 21 -10z"/>
<path d="M0 5564 l0 -814 1840 0 1840 0 0 810 0 810 -762 0 c-420 0 -1248 1
-1840 3 l-1078 4 0 -813z m2158 744 c8 -8 12 -62 12 -178 l0 -166 -39 -22
c-28 -16 -42 -19 -47 -11 -3 6 0 15 7 20 9 6 -3 9 -36 10 l-50 2 50 7 50 7
-45 2 c-25 1 -56 4 -70 7 -24 5 -24 5 -6 -10 18 -15 18 -16 2 -16 -10 0 -14
-4 -10 -12 4 -6 3 -8 -2 -5 -6 3 -16 2 -24 -3 -8 -5 -21 -5 -31 1 -10 5 -27 5
-41 0 -24 -9 -24 -9 110 -26 20 -2 32 1 32 8 0 9 2 9 8 1 4 -6 33 -14 66 -17
60 -6 75 -12 62 -24 -4 -5 -128 -8 -275 -9 l-267 -1 1 44 c0 34 4 43 17 43 9
0 20 5 24 11 5 9 -1 10 -20 5 -20 -5 -26 -3 -21 5 5 8 1 9 -14 4 -11 -3 -29
-1 -38 5 -15 9 -10 10 25 8 48 -4 56 11 17 36 -32 21 -38 20 -30 -4 5 -15 2
-18 -14 -15 -13 2 -22 -3 -26 -16 -4 -10 -11 -19 -16 -19 -13 0 -11 17 4 24
10 5 10 7 0 12 -18 8 -18 275 -1 292 9 9 93 12 318 12 225 0 309 -3 318 -12z
m763 -5 c20 -12 28 -24 27 -40 -2 -13 -3 -23 -3 -23 0 0 -15 -4 -33 -9 -18 -6
-30 -6 -27 -1 3 4 -9 13 -25 19 -17 5 -30 17 -30 25 0 9 -4 16 -10 16 -5 0
-10 7 -10 15 0 21 74 20 111 -2z m-317 -39 c9 -23 7 -44 -3 -44 -5 0 -11 14
-13 30 -5 32 6 41 16 14z m293 -64 c22 -13 31 -25 27 -35 -7 -18 -9 -18 -37
-4 -34 18 -57 41 -51 50 8 14 26 11 61 -11z m-2457 -60 c0 -5 -7 -10 -15 -10
-10 0 -15 -11 -15 -35 0 -19 -4 -35 -10 -35 -5 0 -10 16 -10 35 0 24 -5 35
-15 35 -8 0 -15 5 -15 10 0 6 18 10 40 10 22 0 40 -4 40 -10z m50 -22 c0 -10
2 -10 9 0 5 8 21 12 37 10 23 -2 30 -8 32 -31 3 -22 -1 -30 -17 -34 -12 -3
-21 -12 -21 -19 0 -28 -30 -14 -31 14 0 15 -3 21 -6 15 -7 -19 -51 -16 -62 4
-13 25 5 53 34 53 14 0 25 -6 25 -12z m2408 -1 c16 -19 -2 -40 -27 -32 -27 8
-29 45 -2 45 10 0 23 -6 29 -13z m107 3 c3 -5 -1 -10 -9 -10 -9 0 -16 5 -16
10 0 6 4 10 9 10 6 0 13 -4 16 -10z m-208 -22 c-3 -8 -6 -5 -6 6 -1 11 2 17 5
13 3 -3 4 -12 1 -19z m-2373 -124 c9 -8 16 -20 16 -26 0 -6 9 -3 20 7 16 15
22 15 35 5 12 -10 18 -10 30 0 8 7 22 9 31 6 9 -4 23 -1 30 5 20 17 34 1 27
-31 -4 -20 -1 -30 7 -30 7 0 10 13 8 37 -2 22 2 38 10 41 8 2 12 -11 12 -46 0
-48 -1 -49 -30 -50 -25 -1 -30 3 -30 24 0 16 -6 24 -17 24 -15 0 -15 -2 -4 -9
21 -13 5 -41 -24 -41 -14 0 -25 5 -25 10 0 6 -8 5 -20 -2 -16 -10 -24 -10 -41
0 -15 10 -24 11 -32 3 -6 -6 -24 -11 -39 -11 -26 0 -28 3 -28 43 0 24 3 47 7
50 11 12 41 7 57 -9z m448 -1 c2 -10 2 -33 0 -50 -4 -28 -8 -33 -32 -33 -25 0
-28 4 -33 38 -5 44 6 61 28 42 9 -7 15 -9 14 -4 -3 16 1 24 10 24 5 0 11 -8
13 -17z m-151 -24 c5 -11 15 -19 22 -18 9 0 8 2 -1 6 -10 4 -10 8 -1 19 6 8
15 14 20 14 16 0 39 -32 39 -56 0 -22 -4 -24 -50 -23 -47 2 -50 3 -51 28 l-2
26 -4 -27 c-7 -44 -33 -35 -33 11 0 35 3 39 25 39 15 0 30 -8 36 -19z m215 10
c4 -8 9 -8 17 0 14 14 54 14 59 0 3 -9 9 -9 25 -1 15 9 25 8 39 -3 13 -10 15
-14 5 -15 -11 0 -11 -3 -1 -15 19 -23 3 -34 -45 -33 -41 0 -45 3 -46 27 l-2
26 -4 -27 c-4 -26 -33 -41 -33 -18 0 6 -7 6 -19 -1 -25 -17 -51 -4 -51 24 0
38 39 63 56 36z m622 -5 c6 -11 11 -13 16 -5 13 20 23 11 21 -19 -1 -16 3 -30
8 -30 5 0 4 -7 -3 -15 -15 -18 -31 -19 -65 -3 -20 9 -25 18 -25 50 0 31 4 38
20 38 10 0 23 -7 28 -16z m601 -159 c13 -12 11 -16 -10 -24 -24 -10 -24 -10
-1 -10 59 -2 -3 -39 -80 -48 -27 -3 -51 -9 -54 -14 -2 -4 11 -5 30 -2 19 3 55
2 80 -1 42 -7 46 -10 46 -36 0 -25 -4 -28 -42 -34 -60 -9 -68 -9 -108 -2 -21
3 -37 1 -41 -6 -10 -15 19 -37 49 -38 12 0 31 -9 42 -20 22 -22 35 -27 24 -9
-4 8 1 9 15 4 16 -5 27 -1 37 12 12 15 15 16 23 3 6 -9 6 -19 1 -26 -6 -6 -7
-14 -3 -18 4 -4 1 -11 -7 -16 -11 -7 -12 -13 -2 -35 15 -32 16 -72 2 -80 -5
-3 -10 1 -10 10 0 9 -4 14 -9 11 -5 -3 -7 -15 -4 -25 3 -10 0 -22 -6 -25 -6
-4 -11 -2 -11 5 0 10 -3 10 -12 1 -13 -13 -259 -18 -257 -4 5 27 -3 62 -11 57
-7 -4 -9 2 -4 19 3 14 3 26 -2 26 -14 0 -44 -33 -44 -48 0 -12 -3 -12 -16 -1
-9 7 -23 14 -32 15 -8 2 -19 9 -23 16 -6 9 -9 6 -9 -10 0 -17 8 -26 31 -34 47
-16 35 -43 -22 -45 -41 -1 -45 1 -45 20 1 12 7 26 14 30 6 4 12 15 12 23 0 8
-4 13 -9 10 -5 -4 -11 -1 -13 5 -2 6 -17 12 -33 12 -17 0 -25 2 -18 4 7 2 9
11 6 19 -3 8 0 14 6 14 6 0 11 -5 11 -11 0 -6 7 -3 16 5 8 9 21 16 28 16 8 0
19 7 26 15 7 8 16 15 21 15 5 0 9 -7 9 -15 0 -8 5 -15 11 -15 6 0 8 8 5 18 -5
15 2 21 34 32 22 7 40 17 40 21 0 4 8 10 18 13 10 4 19 13 19 21 0 20 -51 13
-78 -11 -10 -9 -27 -14 -39 -11 -11 3 -18 1 -14 -4 6 -11 -9 -12 -20 -2 -3 4
-17 8 -29 10 l-22 3 23 -13 c22 -12 21 -13 -18 -23 -28 -8 -41 -8 -45 0 -3 6
-3 1 -1 -11 5 -26 -9 -29 -49 -11 -19 8 -28 9 -37 0 -25 -25 -37 20 -38 134 0
116 6 134 45 134 29 0 31 -40 2 -64 -21 -17 -20 -17 13 1 19 10 39 29 45 40
12 28 23 29 305 25 174 -3 228 -7 239 -17z m1008 3 c9 -8 13 -52 13 -159 l0
-148 -72 -3 -73 -3 45 -11 c40 -9 31 -11 -77 -10 -66 1 -119 4 -116 9 2 4 -16
6 -40 6 -24 -1 -49 1 -55 5 -7 4 -12 1 -12 -8 0 -9 6 -16 14 -16 8 0 18 -4 21
-10 4 -7 -3 -7 -19 0 -14 5 -26 8 -26 6 0 -5 -190 61 -198 68 -9 10 35 7 63
-4 14 -6 24 -6 20 -1 -7 12 132 19 152 7 11 -6 14 -5 9 3 -5 7 2 11 16 12 13
1 -1 5 -30 10 -29 5 -66 16 -82 24 -19 10 -30 11 -30 5 0 -6 -4 -8 -10 -5 -5
3 -10 16 -10 27 0 20 -1 21 -20 3 -11 -10 -20 -13 -20 -7 0 7 5 12 10 12 6 0
10 7 10 16 0 26 -25 9 -28 -19 -2 -15 -8 -27 -14 -27 -5 0 -8 6 -5 13 3 7 -3
18 -13 24 -9 7 -20 21 -23 32 -4 16 0 21 15 21 10 0 16 5 13 10 -4 6 -11 7
-17 4 -6 -4 -9 -1 -6 7 6 17 -18 43 -31 34 -6 -3 -15 4 -21 16 -8 15 -9 19 -1
15 10 -7 12 -2 15 32 1 7 6 16 13 20 18 11 606 2 620 -10z m-2788 -36 c1 12
10 16 36 16 25 0 35 -5 36 -16 1 -15 2 -15 6 1 7 25 63 24 63 -2 0 -25 -6 -27
-90 -23 -64 3 -70 5 -69 25 0 21 1 21 9 2 7 -16 9 -16 9 -3z m261 -2 c0 -16
-7 -20 -35 -20 -26 0 -35 4 -36 18 0 14 -2 14 -9 -3 l-9 -20 -1 20 -1 20 -9
-20 c-8 -19 -9 -19 -9 3 -1 20 3 22 54 22 48 0 55 -2 55 -20z m240 0 c0 -19
-6 -20 -115 -19 -101 2 -115 4 -115 19 0 15 14 17 115 19 109 1 115 0 115 -19z
m17 -17 c-3 -10 -5 -4 -5 12 0 17 2 24 5 18 2 -7 2 -21 0 -30z m146 17 c-5
-17 -14 -20 -69 -20 -57 0 -64 2 -64 20 0 18 7 20 69 20 64 0 69 -1 64 -20z
m201 5 c8 -22 -6 -26 -98 -23 -74 2 -86 5 -86 20 0 15 12 17 89 17 68 0 90 -3
95 -14z m23 -22 c-3 -10 -5 -4 -5 12 0 17 2 24 5 18 2 -7 2 -21 0 -30z m-734
-63 c-6 -21 -23 -28 -23 -9 0 6 -6 7 -12 2 -7 -4 -41 -8 -75 -9 -53 -2 -63 0
-63 14 0 15 13 18 89 20 86 3 89 2 84 -18z m293 3 c-3 -16 -18 -19 -130 -23
-69 -3 -131 -3 -136 -2 -6 2 -10 12 -10 21 0 17 13 18 139 20 128 1 139 0 137
-16z m21 -20 c-3 -10 -5 -4 -5 12 0 17 2 24 5 18 2 -7 2 -21 0 -30z m196 24
c-4 -7 0 -6 10 2 14 11 18 11 24 -5 6 -16 7 -16 14 2 7 17 8 17 8 2 1 -10 6
-18 11 -18 5 0 9 5 7 12 -1 6 6 14 16 16 12 2 17 -3 17 -17 0 -20 -6 -21 -85
-21 -69 0 -85 3 -85 15 0 21 -20 19 -21 -2 0 -15 -2 -15 -9 2 -8 18 -9 18 -9
2 -1 -25 -71 -21 -71 4 0 15 12 17 90 17 67 1 89 -2 83 -11z m1527 -92 c7 -9
8 -15 2 -15 -5 0 -12 7 -16 15 -3 8 -4 15 -2 15 2 0 9 -7 16 -15z m-1701 -19
c8 -5 12 -5 8 0 -3 5 15 10 39 11 38 1 45 -2 50 -21 3 -12 3 -35 1 -52 l-4
-29 -301 -3 -302 -2 0 53 0 54 248 -1 c136 -1 253 -6 261 -10z m738 -97 c-10
-6 -14 -15 -10 -22 4 -7 -1 -6 -11 2 -15 13 -19 13 -26 0 -7 -10 -12 -11 -20
-3 -9 9 -1 16 32 27 45 15 66 13 35 -4z m199 -104 c14 -13 13 -15 -10 -15 -18
0 -24 4 -20 15 4 8 8 15 11 15 2 0 11 -7 19 -15z m327 -106 l37 -30 0 -95 0
-94 -57 1 c-32 0 -85 6 -118 13 -33 7 -62 10 -65 6 -9 -13 -80 2 -80 16 0 8
-2 14 -4 14 -2 0 -11 3 -20 6 -12 4 -16 0 -16 -15 0 -20 -4 -21 -54 -18 -30 3
-59 8 -65 11 -6 4 -20 4 -31 1 -16 -5 -20 -2 -20 19 0 18 -4 24 -14 20 -8 -3
-17 -1 -21 5 -9 15 -25 14 -25 -1 0 -8 -15 -14 -35 -15 l-35 -2 0 83 c0 50 5
87 12 94 9 9 88 12 293 12 l280 0 38 -31z m450 -44 c3 -19 -1 -29 -15 -36 -11
-6 -17 -13 -15 -16 10 -9 67 41 67 59 0 17 16 18 263 18 217 0 267 -3 283 -15
19 -14 19 -15 -3 -21 -13 -3 -23 -11 -23 -16 0 -5 9 -6 20 -3 14 4 20 2 20 -8
0 -13 -53 -34 -90 -36 -29 -1 -83 -11 -88 -16 -3 -3 36 -5 86 -5 l92 0 0 -29
c0 -26 -3 -29 -47 -35 -56 -8 -58 -8 -142 -3 -39 3 -67 10 -72 18 -6 11 -11
11 -21 1 -9 -9 -9 -12 1 -12 7 0 10 -4 7 -9 -3 -5 3 -11 14 -14 11 -3 20 -2
20 2 0 4 9 7 20 8 11 1 20 -4 20 -11 0 -7 27 -21 60 -31 40 -12 56 -21 48 -27
-8 -5 0 -7 21 -4 18 1 38 10 43 20 5 9 13 16 19 16 12 0 8 -63 -5 -72 -6 -4
-6 -16 2 -33 15 -32 16 -72 2 -80 -5 -3 -10 2 -10 11 0 14 -3 15 -12 6 -8 -8
-8 -15 1 -25 9 -12 8 -16 -3 -20 -7 -3 -19 0 -25 6 -8 8 -11 8 -11 0 0 -7 -42
-11 -125 -12 l-125 -2 0 31 c0 16 -5 30 -10 30 -6 0 -10 6 -9 13 4 34 -1 38
-26 20 -13 -10 -25 -25 -25 -33 -1 -10 -3 -11 -7 -2 -2 6 -11 12 -18 12 -8 0
-20 7 -28 15 -12 12 -16 12 -20 1 -7 -19 3 -30 43 -46 19 -8 41 -20 48 -27 11
-11 10 -13 -8 -13 -14 0 -19 4 -14 13 6 9 5 9 -7 0 -19 -16 -97 -13 -103 4 -3
7 1 19 9 27 8 8 15 22 15 31 0 18 -38 35 -59 27 -10 -4 -12 -1 -6 8 6 10 4 12
-11 5 -10 -4 -27 -8 -36 -9 -10 -1 -21 -5 -24 -9 -10 -10 -34 -9 -34 2 0 4 19
14 43 20 69 19 87 21 87 8 0 -9 2 -9 8 -1 9 14 103 64 120 64 15 0 54 21 64
35 4 5 10 7 13 3 3 -3 -4 -23 -15 -43 l-21 -38 27 -28 c15 -16 38 -29 51 -29
26 0 30 12 8 30 -8 7 -15 9 -15 6 0 -4 -9 2 -20 12 -18 17 -19 23 -9 45 7 15
20 29 31 32 10 4 18 11 18 18 0 8 -3 8 -12 -1 -18 -18 -28 -14 -28 12 0 19 -5
23 -26 20 -14 -1 -33 -9 -42 -17 -10 -9 -47 -23 -84 -32 -37 -10 -77 -26 -89
-36 -29 -25 -42 -24 -35 4 3 12 3 16 0 10 -3 -8 -15 -11 -30 -7 -15 4 -24 2
-24 -5 0 -8 -6 -7 -20 1 -18 12 -20 24 -20 125 0 88 3 115 16 127 24 24 51 20
57 -9z m-814 -242 c1 18 31 25 31 7 0 -5 -5 -10 -11 -10 -5 0 -7 -4 -4 -10 7
-11 -6 -13 -29 -4 -9 3 -12 12 -9 22 6 13 8 13 14 -4 7 -17 8 -17 8 -1z"/>
<path d="M1750 6103 c0 -4 5 -15 10 -23 8 -13 10 -13 10 2 0 9 -4 20 -10 23
-5 3 -10 3 -10 -2z"/>
<path d="M1882 6065 c0 -16 2 -22 5 -12 2 9 2 23 0 30 -3 6 -5 -1 -5 -18z"/>
<path d="M1691 6034 c-30 -38 -26 -56 7 -36 7 5 52 3 100 -4 106 -16 115 -17
107 -4 -4 6 8 10 29 10 40 0 43 6 21 36 -14 19 -15 18 -65 -8 -62 -35 -76 -34
-120 2 -42 37 -53 37 -79 4z"/>
<path d="M2025 6010 c-18 -19 -17 -20 2 -20 12 0 23 8 26 20 3 11 2 20 -2 20
-5 0 -16 -9 -26 -20z"/>
<path d="M1688 5961 c-27 -6 -27 -23 1 -29 15 -3 41 16 41 29 0 10 -2 10 -42
0z"/>
<path d="M1835 5960 c-3 -5 1 -10 9 -10 8 0 18 5 21 10 3 6 -1 10 -9 10 -8 0
-18 -4 -21 -10z"/>
<path d="M1765 5953 c-16 -3 -34 -9 -40 -15 -7 -6 -3 -9 10 -6 12 2 19 -2 18
-9 -2 -7 4 -10 12 -7 8 4 15 10 15 15 0 5 9 9 20 9 11 0 20 5 20 10 0 6 -6 9
-12 9 -7 -1 -26 -4 -43 -6z"/>
<path d="M450 6095 c0 -8 5 -15 10 -15 6 0 10 7 10 15 0 8 -4 15 -10 15 -5 0
-10 -7 -10 -15z"/>
<path d="M531 6094 c0 -11 3 -14 6 -6 3 7 2 16 -1 19 -3 4 -6 -2 -5 -13z"/>
<path d="M390 5935 c0 -14 5 -25 10 -25 6 0 10 11 10 25 0 14 -4 25 -10 25 -5
0 -10 -11 -10 -25z"/>
<path d="M832 5930 c0 -14 2 -19 5 -12 2 6 2 18 0 25 -3 6 -5 1 -5 -13z"/>
<path d="M900 5931 c0 -6 5 -13 10 -16 6 -3 10 1 10 9 0 9 -4 16 -10 16 -5 0
-10 -4 -10 -9z"/>
<path d="M1899 5659 c-13 -42 -2 -55 41 -49 26 3 31 16 8 17 -13 1 -28 10 -35
19 -7 10 -14 16 -14 13z"/>
<path d="M1872 5583 c-12 -5 -42 -55 -42 -70 1 -17 37 -50 63 -57 22 -5 27 -3
27 13 0 13 -6 18 -17 17 -10 -2 -26 6 -35 16 -20 24 -8 60 26 76 21 11 3 15
-22 5z"/>
<path d="M2025 5550 c-3 -5 -1 -10 4 -10 6 0 11 5 11 10 0 6 -2 10 -4 10 -3 0
-8 -4 -11 -10z"/>
<path d="M2070 5517 c0 -8 -6 -14 -12 -14 -46 -3 -93 -14 -96 -23 -3 -7 -9 -6
-20 2 -13 11 -15 9 -9 -17 4 -25 1 -32 -17 -41 -18 -9 -25 -8 -34 5 -9 13 -11
10 -11 -16 -1 -33 13 -53 22 -31 3 8 6 9 6 2 1 -12 51 -7 51 5 0 4 16 5 35 3
21 -3 35 0 35 7 0 6 7 8 15 5 8 -4 15 -1 15 6 0 6 4 9 9 6 5 -3 14 0 20 8 7 8
22 17 35 20 28 7 29 36 4 66 -20 23 -48 27 -48 7z m-20 -36 c0 -5 12 -8 26 -5
17 3 23 1 19 -6 -4 -6 -13 -9 -21 -6 -8 3 -14 -1 -14 -10 0 -12 -8 -15 -34
-12 -19 2 -33 1 -32 -2 2 -3 0 -14 -5 -25 -6 -15 -8 -16 -8 -4 -1 9 -8 19 -16
23 -18 7 -20 22 -2 24 30 2 62 13 65 22 5 13 22 13 22 1z"/>
<path d="M2680 5778 c0 -5 -5 -6 -10 -3 -6 4 -10 -5 -8 -24 1 -17 6 -31 10
-31 4 0 8 -12 8 -26 0 -23 1 -24 16 -10 8 9 27 17 42 17 21 1 23 2 7 6 -33 8
-47 25 -43 53 3 17 -1 27 -9 27 -7 0 -13 -4 -13 -9z"/>
<path d="M2719 5743 c-13 -17 -13 -17 6 -3 11 8 22 16 24 17 2 2 0 3 -6 3 -6
0 -17 -8 -24 -17z"/>
<path d="M2620 5710 c20 -13 53 -13 45 0 -3 6 -18 10 -33 10 -21 0 -24 -2 -12
-10z"/>
<path d="M2894 5542 c4 -7 -7 -12 -31 -15 -21 -2 31 -4 116 -5 85 -1 152 0
150 2 -2 2 -40 6 -84 9 -44 4 -98 9 -119 13 -27 5 -37 4 -32 -4z"/>
<path d="M2678 5043 c12 -2 20 -9 17 -14 -4 -5 1 -9 11 -9 13 0 14 3 4 15 -7
8 -22 14 -34 14 -20 -2 -20 -2 2 -6z"/>
<path d="M2753 4956 c0 -8 6 -12 14 -9 7 3 10 9 7 14 -8 14 -21 11 -21 -5z"/>
<path d="M3080 4955 c0 -8 -6 -15 -13 -15 -8 0 -14 -7 -14 -15 0 -10 9 -13 28
-11 20 2 26 0 22 -11 -3 -8 -12 -12 -20 -9 -8 3 -21 -1 -29 -9 -12 -11 -20
-12 -35 -5 -24 13 -25 28 -2 26 10 0 19 7 21 16 2 11 -2 15 -15 13 -10 -2 -26
-4 -35 -4 -11 -1 -18 -9 -18 -21 0 -11 6 -19 12 -17 7 1 14 -8 16 -20 2 -13 1
-23 -3 -23 -15 0 -35 31 -35 54 0 18 -4 24 -15 20 -11 -5 -12 -10 -4 -26 6
-11 9 -20 7 -21 -2 -1 -13 -8 -25 -14 -30 -17 -33 -16 -33 4 0 11 -3 13 -9 8
-5 -6 -7 -23 -4 -38 5 -25 8 -27 37 -21 17 4 36 14 43 23 11 15 12 15 13 0 0
-12 8 -15 27 -13 15 1 29 8 31 13 2 6 8 9 13 5 5 -3 9 0 9 6 0 7 6 10 14 7 8
-3 20 1 26 8 7 8 16 13 20 10 5 -3 11 -1 15 5 4 6 10 8 14 5 18 -11 -3 51 -23
67 -26 22 -36 22 -36 3z"/>
<path d="M2170 4566 c-101 -28 -183 -87 -238 -173 -62 -96 -62 -102 -62 -811
0 -726 -3 -694 74 -732 41 -19 59 -20 537 -20 528 0 555 2 651 51 99 50 183
165 208 282 7 36 10 257 8 687 -3 610 -4 636 -23 667 -38 64 -29 63 -597 62
-375 0 -525 -4 -558 -13z m684 -117 c17 -11 45 -19 61 -20 l30 -1 -30 -9 c-29
-8 -28 -8 8 -6 20 2 37 -1 37 -5 0 -4 -18 -8 -40 -8 -39 0 -90 -17 -90 -30 0
-11 -68 -22 -81 -14 -7 4 1 14 20 26 41 26 39 38 -6 39 -38 1 -38 1 -8 9 22 6
25 8 9 9 -22 1 -56 31 -36 31 6 0 13 -4 16 -9 7 -11 56 -21 56 -12 0 4 -6 13
-12 20 -11 11 -9 12 11 6 14 -4 38 -16 55 -26z m-101 -115 c9 -3 17 -11 17
-19 0 -14 -30 -25 -74 -25 -28 0 -29 -1 -10 -14 18 -14 16 -17 -36 -74 -30
-33 -60 -60 -66 -61 -5 0 -11 16 -12 37 -2 21 -6 51 -11 67 -13 50 13 85 67
85 17 0 32 5 32 11 0 11 44 7 93 -7z m-305 -73 l74 -1 -19 -32 c-14 -24 -27
-34 -48 -36 -67 -6 -75 -11 -75 -45 0 -40 15 -57 52 -57 19 0 34 9 50 30 30
41 63 40 72 -1 3 -18 10 -28 17 -24 14 9 95 -14 109 -30 14 -17 -36 -59 -107
-92 -64 -29 -83 -59 -24 -38 68 24 117 53 149 89 45 52 172 110 172 79 0 -23
-60 -100 -100 -131 -14 -9 -15 -6 -12 24 2 19 8 37 13 40 5 3 9 10 9 15 0 6
-21 -7 -47 -29 -76 -63 -129 -88 -278 -132 -77 -23 -148 -47 -159 -52 -12 -7
-16 -7 -12 0 9 15 139 76 156 73 23 -4 5 9 -19 14 -12 2 -19 0 -16 -6 10 -15
-2 -10 -16 8 -8 9 -9 14 -4 11 6 -3 20 -2 33 3 31 12 33 70 2 62 -12 -3 -18
-8 -15 -11 3 -3 -2 -14 -12 -24 -13 -15 -32 -18 -105 -18 -84 0 -90 -2 -114
-27 -24 -26 -26 -41 -8 -87 3 -9 1 -16 -4 -16 -14 0 -21 23 -30 104 -10 77 -5
126 12 126 9 0 11 17 9 55 -2 42 0 55 11 55 7 0 25 9 40 21 15 11 33 18 42 15
8 -3 13 -2 10 3 -7 10 22 24 33 16 4 -2 8 2 8 10 0 8 -5 12 -11 9 -6 -3 0 4
14 15 15 13 35 19 50 17 14 -3 58 -5 98 -5z m540 -39 l23 -18 -25 -12 c-22
-10 -24 -15 -16 -41 5 -17 11 -35 15 -41 3 -5 -1 -10 -9 -10 -21 0 -36 32 -29
60 5 18 3 21 -7 15 -17 -10 -70 -15 -92 -9 -21 6 -24 24 -4 24 8 0 16 7 20 15
3 8 11 12 19 9 8 -3 20 2 27 11 17 20 50 19 78 -3z m74 -94 c13 -13 17 -18 8
-13 -9 6 -6 0 7 -12 13 -12 23 -29 23 -38 0 -8 5 -15 10 -15 6 0 10 -5 10 -11
0 -5 -5 -7 -12 -3 -7 5 -8 3 -2 -7 4 -8 9 -21 11 -29 1 -12 -1 -11 -11 3 -18
23 -62 22 -88 -3 -23 -21 -68 -27 -68 -9 0 6 14 22 30 36 21 17 30 33 28 51
-2 33 10 72 22 72 5 0 19 -10 32 -22z m86 -184 c11 -62 4 -247 -9 -255 -6 -4
-8 -12 -4 -19 6 -9 4 -11 -5 -5 -10 6 -12 4 -7 -9 4 -10 1 -24 -8 -33 -8 -8
-12 -20 -8 -26 4 -7 0 -8 -12 -3 -15 5 -16 4 -5 -9 12 -14 7 -20 -14 -16 -5 1
-6 -5 -3 -14 4 -9 1 -15 -8 -15 -7 0 -17 -5 -21 -12 -5 -7 -3 -8 7 -3 12 8 12
6 0 -9 -11 -13 -16 -14 -23 -4 -6 9 -7 6 -3 -9 4 -16 0 -25 -17 -35 -13 -7
-26 -11 -30 -10 -5 1 -8 -4 -8 -11 0 -8 -6 -14 -14 -14 -12 0 -11 4 2 22 9 13
23 20 29 18 7 -3 13 -4 14 -2 0 2 4 43 8 91 5 59 13 94 24 106 10 10 17 27 17
36 0 16 -7 18 -64 11 -68 -7 -113 6 -99 27 10 17 13 109 3 103 -5 -3 -19 -26
-31 -50 -20 -40 -99 -115 -121 -115 -15 0 -8 49 10 60 15 10 15 11 0 6 -12 -3
-15 -1 -11 10 7 18 -11 18 -26 1 -6 -8 -23 -12 -42 -9 -27 4 -31 2 -26 -12 4
-9 4 -23 1 -31 -6 -13 -64 -55 -77 -55 -4 0 -4 20 -2 45 4 43 3 45 -18 41 -42
-8 -74 -24 -81 -41 -10 -28 -7 -35 15 -35 16 0 19 -4 14 -17 -19 -50 -17 -79
10 -111 15 -18 33 -32 41 -32 8 0 26 -8 41 -17 30 -20 69 -103 53 -113 -10 -6
-6 -21 36 -117 25 -57 26 -68 1 -46 -12 11 -43 34 -69 52 -26 17 -70 54 -99
82 -37 36 -55 47 -62 40 -6 -6 -28 -11 -50 -11 -24 0 -36 -4 -32 -10 4 -6 20
-9 36 -6 18 2 29 0 30 -7 0 -9 2 -9 5 -1 3 7 14 10 24 7 11 -3 17 -10 13 -16
-3 -5 -1 -7 4 -4 6 4 16 0 23 -8 7 -8 19 -15 26 -15 8 0 14 -4 14 -10 0 -5 -7
-10 -15 -10 -8 0 -15 5 -15 11 0 5 -4 8 -9 4 -5 -3 -12 -1 -15 4 -11 17 -45
-1 -48 -25 -4 -32 -22 -32 -26 0 -2 17 -11 25 -34 30 -16 3 -33 4 -37 2 -4 -3
-8 8 -9 23 -2 24 4 30 52 50 l53 22 -5 47 c-3 26 -4 77 -4 115 2 74 1 74 -67
61 -25 -5 -31 -11 -31 -33 0 -15 -6 -35 -13 -45 -13 -17 -16 -17 -49 13 -20
17 -39 43 -42 57 -7 25 -9 26 -57 21 -41 -5 -51 -3 -56 11 -4 9 -13 21 -20 25
-12 7 -12 12 2 27 13 15 22 17 42 9 31 -12 30 -12 37 7 4 9 0 24 -8 33 -23 25
-4 43 45 44 24 1 48 6 52 12 6 7 10 5 14 -4 3 -7 8 -9 12 -4 8 13 101 25 101
14 0 -5 7 -12 16 -15 14 -5 15 -4 4 9 -16 20 -6 19 26 -2 14 -9 36 -17 47 -18
12 -1 30 -5 40 -10 13 -6 17 -2 17 16 0 13 -4 31 -10 39 -8 12 -10 12 -16 -4
-6 -17 -8 -16 -20 5 -15 27 -19 52 -4 29 5 -8 18 -16 30 -16 15 -1 20 5 20 22
0 16 6 24 18 24 13 0 14 -2 3 -9 -7 -5 -10 -14 -7 -20 10 -16 26 -14 26 3 0 8
5 18 12 22 7 5 9 1 6 -13 -4 -16 -2 -19 13 -16 18 5 36 39 26 50 -8 8 57 62
67 56 5 -3 1 -10 -8 -15 -24 -14 -19 -26 9 -20 14 2 25 0 25 -6 0 -6 -8 -8
-19 -5 -10 3 -22 0 -25 -6 -4 -6 -2 -11 3 -11 6 0 11 -7 11 -15 0 -8 5 -15 10
-15 6 0 10 5 10 11 0 5 4 8 8 5 5 -3 16 11 26 30 15 32 40 42 42 18 0 -5 4
-17 9 -28 5 -12 3 -21 -6 -28 -10 -7 -8 -8 9 -3 21 6 30 -4 15 -19 -4 -4 -9
-19 -11 -34 -2 -15 -9 -34 -16 -42 -7 -8 -17 -22 -21 -30 -7 -13 30 26 97 102
9 11 15 25 12 31 -4 12 98 57 128 57 9 0 32 -7 51 -15 50 -21 57 -19 57 13 0
27 9 47 17 38 2 -2 7 -21 11 -42z m-738 -333 c0 -5 -3 -23 -6 -40 -5 -24 -12
-31 -30 -31 -20 0 -24 5 -24 33 0 19 3 37 7 40 9 10 53 8 53 -2z m404 -10 c3
-4 17 -6 30 -4 31 6 88 -32 84 -56 -4 -19 -74 -30 -145 -21 -40 4 -48 9 -48
25 0 13 8 21 23 23 14 2 22 10 22 23 0 19 24 27 34 10z m-186 -83 c-2 -13 -10
-23 -18 -23 -8 0 -16 10 -18 23 -3 17 2 22 18 22 16 0 21 -5 18 -22z m301
-128 c-23 -18 -23 -19 -4 -20 15 -1 16 -3 5 -7 -39 -15 -62 -101 -33 -124 18
-16 16 -26 -7 -39 -19 -10 -20 -8 -17 77 l2 88 -40 3 c-27 2 -45 9 -53 22 -12
19 -9 20 79 20 l91 0 -23 -20z m-751 -68 c-5 -20 -12 -39 -15 -42 -3 -4 2 70
6 88 1 2 5 1 10 -2 6 -4 5 -21 -1 -44z m678 11 c-3 -8 -6 -18 -6 -22 0 -5 -12
-7 -27 -4 -24 3 -25 2 -8 -6 16 -8 17 -10 4 -10 -9 -1 -16 -8 -15 -17 0 -9 -4
-19 -10 -21 -15 -5 -23 41 -11 64 8 15 7 16 -4 6 -7 -7 -23 -13 -35 -13 -13 0
-26 -4 -29 -10 -12 -20 -33 -10 -31 15 0 16 6 23 14 20 6 -2 12 0 12 5 0 10
59 17 113 11 29 -2 37 -7 33 -18z m-495 -119 c12 -14 11 -16 -5 -13 -11 2 -21
10 -24 17 -5 17 13 15 29 -4z m699 -46 c12 -29 42 -149 38 -153 -13 -11 -277
-61 -293 -55 -21 8 -23 30 -10 146 7 60 8 61 130 70 44 4 82 8 84 10 13 12 43
1 51 -18z m-625 -8 c3 -5 2 -10 -4 -10 -5 0 -13 5 -16 10 -3 6 -2 10 4 10 5 0
13 -4 16 -10z m-299 -109 c-12 -19 -22 -12 -24 16 -2 25 -1 26 14 11 9 -9 13
-21 10 -27z m123 -37 c-10 -12 -14 -12 -20 -2 -4 7 -3 16 4 20 18 11 29 -2 16
-18z"/>
<path d="M2823 4423 c9 -2 25 -2 35 0 9 3 1 5 -18 5 -19 0 -27 -2 -17 -5z"/>
<path d="M2770 4011 c0 -6 4 -13 10 -16 6 -3 7 1 4 9 -7 18 -14 21 -14 7z"/>
<path d="M2652 3813 c-22 -4 -23 -5 -5 -18 28 -22 63 -19 63 5 0 20 -9 22 -58
13z m35 -19 c-3 -3 -12 -4 -19 -1 -8 3 -5 6 6 6 11 1 17 -2 13 -5z"/>
<path d="M2378 3773 c7 -3 16 -2 19 1 4 3 -2 6 -13 5 -11 0 -14 -3 -6 -6z"/>
<path d="M2597 3739 c-5 -17 -3 -18 11 -7 9 7 18 13 20 14 2 1 -4 4 -12 7 -8
3 -16 -2 -19 -14z"/>
<path d="M2505 3470 c-19 -8 -19 -9 3 -9 12 -1 22 4 22 9 0 6 -1 10 -2 9 -2 0
-12 -4 -23 -9z"/>
<path d="M2550 3374 c42 -49 44 -50 24 -15 -11 19 -26 36 -34 39 -9 3 -5 -7
10 -24z"/>
<path d="M2603 3515 c0 -8 4 -15 9 -15 4 0 8 7 8 15 0 8 -4 15 -8 15 -5 0 -9
-7 -9 -15z"/>
<path d="M333 4297 c0 -8 12 -13 29 -13 15 0 28 4 28 9 0 5 -9 7 -20 4 -11 -3
-20 -1 -20 4 0 5 -4 9 -8 9 -5 0 -9 -6 -9 -13z"/>
<path d="M636 4302 c-13 -12 -5 -22 19 -22 14 0 25 4 25 9 0 10 -36 21 -44 13z"/>
<path d="M743 4302 c-62 -5 -53 -18 12 -18 30 -1 55 2 55 6 0 12 -21 15 -67
12z"/>
<path d="M870 4295 c0 -8 5 -15 10 -15 6 0 10 7 10 15 0 8 -4 15 -10 15 -5 0
-10 -7 -10 -15z"/>
<path d="M990 4298 c0 -7 11 -15 25 -16 14 -1 25 3 25 8 0 6 -4 10 -9 10 -5 0
-16 3 -25 6 -10 4 -16 1 -16 -8z"/>
<path d="M1240 4296 c0 -9 5 -16 10 -16 6 0 10 4 10 9 0 6 -4 13 -10 16 -5 3
-10 -1 -10 -9z"/>
<path d="M1300 4295 c0 -6 18 -11 40 -12 25 -1 40 3 40 10 0 7 -16 12 -40 12
-22 0 -40 -5 -40 -10z"/>
<path d="M1560 4295 c0 -8 7 -15 15 -15 8 0 15 4 15 9 0 5 -7 11 -15 15 -9 3
-15 0 -15 -9z"/>
<path d="M1713 4303 c-20 -7 -15 -19 7 -20 11 -1 20 2 20 7 0 12 -13 18 -27
13z"/>
<path d="M420 4290 c0 -5 5 -10 10 -10 6 0 10 5 10 10 0 6 -4 10 -10 10 -5 0
-10 -4 -10 -10z"/>
<path d="M481 4283 c0 -10 3 -13 5 -7 3 7 14 10 24 7 11 -3 20 0 20 6 0 6 -11
11 -25 11 -17 0 -25 -5 -24 -17z"/>
<path d="M590 4292 c0 -5 7 -9 15 -9 8 0 15 4 15 9 0 4 -7 8 -15 8 -8 0 -15
-4 -15 -8z"/>
<path d="M830 4290 c0 -5 5 -10 10 -10 6 0 10 5 10 10 0 6 -4 10 -10 10 -5 0
-10 -4 -10 -10z"/>
<path d="M920 4290 c0 -5 9 -10 20 -10 11 0 20 5 20 10 0 6 -9 10 -20 10 -11
0 -20 -4 -20 -10z"/>
<path d="M1050 4286 c0 -9 7 -12 20 -9 11 3 17 9 14 14 -8 14 -34 10 -34 -5z"/>
<path d="M1105 4290 c4 -6 11 -8 16 -5 14 9 11 15 -7 15 -8 0 -12 -5 -9 -10z"/>
<path d="M1170 4290 c0 -5 5 -10 10 -10 6 0 10 5 10 10 0 6 -4 10 -10 10 -5 0
-10 -4 -10 -10z"/>
<path d="M1200 4290 c0 -5 5 -10 11 -10 5 0 7 5 4 10 -3 6 -8 10 -11 10 -2 0
-4 -4 -4 -10z"/>
<path d="M1400 4290 c0 -5 9 -10 20 -10 11 0 20 5 20 10 0 6 -9 10 -20 10 -11
0 -20 -4 -20 -10z"/>
<path d="M1460 4290 c0 -5 5 -10 10 -10 6 0 10 5 10 10 0 6 -4 10 -10 10 -5 0
-10 -4 -10 -10z"/>
<path d="M1510 4292 c0 -5 7 -9 15 -9 8 0 15 4 15 9 0 4 -7 8 -15 8 -8 0 -15
-4 -15 -8z"/>
<path d="M1600 4296 c0 -2 7 -7 16 -10 8 -3 12 -2 9 4 -6 10 -25 14 -25 6z"/>
<path d="M1650 4286 c7 -7 14 -6 21 1 9 9 7 12 -9 10 -14 -1 -18 -5 -12 -11z"/>
<path d="M1785 4290 c3 -5 8 -10 11 -10 2 0 4 5 4 10 0 6 -5 10 -11 10 -5 0
-7 -4 -4 -10z"/>
<path d="M386 4215 c-3 -9 0 -15 9 -15 16 0 20 16 6 24 -5 3 -11 -1 -15 -9z"/>
<path d="M433 4215 c0 -10 8 -14 23 -12 26 3 41 13 22 14 -7 0 -20 4 -29 7
-10 5 -16 2 -16 -9z"/>
<path d="M500 4215 c0 -10 10 -15 30 -15 17 0 30 5 30 11 0 6 -6 9 -12 6 -7
-2 -21 0 -30 5 -13 6 -18 5 -18 -7z"/>
<path d="M571 4214 c0 -11 3 -14 6 -6 3 7 2 16 -1 19 -3 4 -6 -2 -5 -13z"/>
<path d="M856 4221 c-9 -14 3 -18 51 -20 33 -1 41 2 37 14 -4 10 -12 12 -22 7
-20 -10 -33 -9 -49 1 -6 4 -14 3 -17 -2z"/>
<path d="M971 4214 c0 -11 3 -14 6 -6 3 7 2 16 -1 19 -3 4 -6 -2 -5 -13z"/>
<path d="M991 4214 c0 -11 3 -14 6 -6 3 7 2 16 -1 19 -3 4 -6 -2 -5 -13z"/>
<path d="M1300 4215 c-7 -9 -8 -15 -2 -15 5 0 12 7 16 15 3 8 4 15 2 15 -2 0
-9 -7 -16 -15z"/>
<path d="M1331 4214 c0 -11 3 -14 6 -6 3 7 2 16 -1 19 -3 4 -6 -2 -5 -13z"/>
<path d="M1570 4216 c0 -9 5 -16 10 -16 6 0 10 4 10 9 0 6 -4 13 -10 16 -5 3
-10 -1 -10 -9z"/>
<path d="M1670 4219 c0 -5 -5 -7 -12 -3 -7 4 -8 3 -4 -4 10 -17 36 -15 36 3 0
8 -4 15 -10 15 -5 0 -10 -5 -10 -11z"/>
<path d="M330 4216 c0 -2 7 -6 15 -10 8 -3 15 -1 15 4 0 6 -7 10 -15 10 -8 0
-15 -2 -15 -4z"/>
<path d="M590 4202 c0 -12 3 -12 15 -2 8 7 15 13 15 15 0 1 -7 2 -15 2 -8 0
-15 -7 -15 -15z"/>
<path d="M675 4210 c-3 -5 3 -10 15 -10 12 0 18 5 15 10 -3 6 -10 10 -15 10
-5 0 -12 -4 -15 -10z"/>
<path d="M726 4207 c3 -10 9 -15 12 -12 3 3 0 11 -7 18 -10 9 -11 8 -5 -6z"/>
<path d="M755 4210 c-4 -6 3 -10 14 -10 25 0 27 6 6 13 -8 4 -17 2 -20 -3z"/>
<path d="M815 4210 c-3 -5 1 -10 9 -10 9 0 16 5 16 10 0 6 -4 10 -9 10 -6 0
-13 -4 -16 -10z"/>
<path d="M1050 4208 c0 -4 11 -8 25 -8 14 0 25 4 25 8 0 4 -11 8 -25 8 -14 0
-25 -4 -25 -8z"/>
<path d="M1120 4210 c0 -5 5 -10 10 -10 6 0 10 5 10 10 0 6 -4 10 -10 10 -5 0
-10 -4 -10 -10z"/>
<path d="M1175 4210 c-3 -5 3 -10 15 -10 12 0 18 5 15 10 -3 6 -10 10 -15 10
-5 0 -12 -4 -15 -10z"/>
<path d="M1220 4216 c0 -2 7 -6 15 -10 8 -3 15 -1 15 4 0 6 -7 10 -15 10 -8 0
-15 -2 -15 -4z"/>
<path d="M1430 4210 c0 -5 5 -10 11 -10 5 0 7 5 4 10 -3 6 -8 10 -11 10 -2 0
-4 -4 -4 -10z"/>
<path d="M1474 4209 c-3 -5 11 -9 30 -9 20 0 36 3 36 8 0 10 -59 12 -66 1z"/>
<path d="M1600 4209 c0 -5 9 -9 20 -9 11 0 20 4 20 8 0 4 -9 8 -20 9 -11 1
-20 -2 -20 -8z"/>
<path d="M1735 4210 c-4 -6 7 -10 25 -10 18 0 29 4 25 10 -3 6 -15 10 -25 10
-10 0 -22 -4 -25 -10z"/>
<path d="M370 4135 c-11 -13 -8 -15 15 -15 23 0 26 2 15 15 -7 8 -14 15 -15
15 -1 0 -8 -7 -15 -15z"/>
<path d="M330 4130 c0 -5 5 -10 11 -10 5 0 7 5 4 10 -3 6 -8 10 -11 10 -2 0
-4 -4 -4 -10z"/>
<path d="M356 4039 c-15 -17 -26 -42 -25 -57 1 -25 2 -25 9 5 9 39 26 62 55
73 15 7 16 9 3 9 -9 1 -28 -13 -42 -30z"/>
<path d="M440 4063 c8 -3 26 -15 40 -27 l25 -21 -24 28 c-14 15 -32 27 -40 26
-14 0 -14 -1 -1 -6z"/>
<path d="M385 4001 c-11 -36 17 -67 49 -55 40 15 28 74 -14 74 -19 0 -31 -6
-35 -19z m60 -16 c0 -15 -7 -20 -25 -20 -23 0 -33 17 -22 38 8 17 47 2 47 -18z"/>
<path d="M502 3985 c0 -16 2 -22 5 -12 2 9 2 23 0 30 -3 6 -5 -1 -5 -18z"/>
<path d="M1495 3960 c-3 -5 -1 -10 4 -10 6 0 11 5 11 10 0 6 -2 10 -4 10 -3 0
-8 -4 -11 -10z"/>
<path d="M345 3938 c5 -13 45 -42 50 -36 1 2 -11 13 -26 26 -16 13 -27 17 -24
10z"/>
<path d="M475 3930 c-10 -11 -25 -20 -33 -20 -9 0 -12 -3 -9 -7 9 -9 55 16 61
33 7 19 2 17 -19 -6z"/>
<path d="M1151 3884 c0 -11 3 -14 6 -6 3 7 2 16 -1 19 -3 4 -6 -2 -5 -13z"/>
<path d="M359 3801 c-19 -20 -29 -39 -28 -58 1 -26 2 -26 9 7 16 68 88 93 135
45 29 -28 32 -69 9 -105 l-16 -25 21 24 c12 13 21 37 21 53 0 41 -48 88 -90
88 -22 0 -41 -9 -61 -29z"/>
<path d="M577 3725 c3 -8 9 -12 14 -9 12 7 11 11 -5 17 -10 4 -13 1 -9 -8z"/>
<path d="M997 3734 c-8 -8 1 -24 14 -24 5 0 9 7 9 15 0 15 -12 20 -23 9z"/>
<path d="M1416 3725 c-3 -8 -1 -15 4 -15 6 0 10 7 10 15 0 8 -2 15 -4 15 -2 0
-6 -7 -10 -15z"/>
<path d="M1770 3731 c0 -7 -5 -9 -12 -5 -7 5 -8 3 -3 -5 5 -9 10 -10 18 -2 6
6 8 14 4 18 -4 3 -7 1 -7 -6z"/>
<path d="M705 3721 c-3 -6 4 -9 15 -8 11 1 20 5 20 9 0 11 -28 10 -35 -1z"/>
<path d="M780 3720 c0 -5 5 -10 10 -10 6 0 10 5 10 10 0 6 -4 10 -10 10 -5 0
-10 -4 -10 -10z"/>
<path d="M905 3720 c3 -5 8 -10 11 -10 2 0 4 5 4 10 0 6 -5 10 -11 10 -5 0 -7
-4 -4 -10z"/>
<path d="M1160 3719 c0 -5 5 -7 10 -4 6 3 10 8 10 11 0 2 -4 4 -10 4 -5 0 -10
-5 -10 -11z"/>
<path d="M1275 3720 c3 -5 8 -10 11 -10 2 0 4 5 4 10 0 6 -5 10 -11 10 -5 0
-7 -4 -4 -10z"/>
<path d="M1485 3721 c-3 -6 4 -9 15 -8 11 1 20 5 20 9 0 11 -28 10 -35 -1z"/>
<path d="M1610 3720 c0 -5 7 -7 15 -4 8 4 15 8 15 10 0 2 -7 4 -15 4 -8 0 -15
-4 -15 -10z"/>
<path d="M340 3703 c0 -6 8 -17 18 -24 16 -13 16 -13 2 6 -8 11 -16 22 -17 24
-2 2 -3 0 -3 -6z"/>
<path d="M651 3654 c0 -11 3 -14 6 -6 3 7 2 16 -1 19 -3 4 -6 -2 -5 -13z"/>
<path d="M408 3653 c6 -2 18 -2 25 0 6 3 1 5 -13 5 -14 0 -19 -2 -12 -5z"/>
<path d="M720 3650 c0 -4 7 -7 15 -6 23 3 26 12 5 13 -11 1 -20 -2 -20 -7z"/>
<path d="M1005 3649 c-3 -4 2 -6 10 -5 21 3 28 13 10 13 -9 0 -18 -4 -20 -8z"/>
<path d="M1200 3650 c19 -13 30 -13 30 0 0 6 -10 10 -22 10 -19 0 -20 -2 -8
-10z"/>
<path d="M1550 3650 c0 -4 7 -7 15 -6 23 3 26 12 5 13 -11 1 -20 -2 -20 -7z"/>
<path d="M1616 3648 c3 -4 9 -8 15 -8 5 0 9 4 9 8 0 5 -7 9 -15 9 -8 0 -12 -4
-9 -9z"/>
<path d="M1750 3655 c0 -7 30 -13 34 -7 3 4 -4 9 -15 9 -10 1 -19 0 -19 -2z"/>
<path d="M645 3570 c3 -5 8 -10 11 -10 2 0 4 5 4 10 0 6 -5 10 -11 10 -5 0 -7
-4 -4 -10z"/>
<path d="M780 3570 c0 -5 5 -10 11 -10 5 0 7 5 4 10 -3 6 -8 10 -11 10 -2 0
-4 -4 -4 -10z"/>
<path d="M390 3530 c-18 -12 -2 -12 25 0 13 6 15 9 5 9 -8 0 -22 -4 -30 -9z"/>
<path d="M350 3505 c-7 -9 -11 -17 -9 -20 3 -2 10 5 17 15 14 24 10 26 -8 5z"/>
<path d="M481 3503 c7 -12 15 -20 18 -17 3 2 -3 12 -13 22 -17 16 -18 16 -5
-5z"/>
<path d="M331 3447 c-1 -40 47 -87 89 -87 42 0 90 47 89 87 -1 26 -2 26 -9 -7
-10 -42 -42 -70 -80 -70 -38 0 -70 28 -80 70 -7 33 -8 33 -9 7z"/>
<path d="M786 3432 c-3 -5 1 -9 9 -9 8 0 12 4 9 9 -3 4 -7 8 -9 8 -2 0 -6 -4
-9 -8z"/>
<path d="M1341 3424 c0 -11 3 -14 6 -6 3 7 2 16 -1 19 -3 4 -6 -2 -5 -13z"/>
<path d="M795 3360 c-16 -7 -17 -9 -3 -9 9 -1 20 4 23 9 7 11 7 11 -20 0z"/>
<path d="M865 3360 c3 -5 8 -10 11 -10 2 0 4 5 4 10 0 6 -5 10 -11 10 -5 0 -7
-4 -4 -10z"/>
<path d="M1125 3360 c3 -5 8 -10 11 -10 2 0 4 5 4 10 0 6 -5 10 -11 10 -5 0
-7 -4 -4 -10z"/>
<path d="M1420 3360 c0 -5 5 -10 11 -10 5 0 7 5 4 10 -3 6 -8 10 -11 10 -2 0
-4 -4 -4 -10z"/>
<path d="M575 3281 c-6 -11 9 -23 19 -14 9 9 7 23 -3 23 -6 0 -12 -4 -16 -9z"/>
<path d="M372 3223 c-7 -2 -17 -14 -23 -26 -9 -19 -8 -20 3 -6 7 8 22 21 33
27 20 11 11 15 -13 5z"/>
<path d="M455 3218 c11 -6 26 -19 33 -27 11 -14 11 -14 6 2 -4 10 -15 22 -25
27 -25 14 -38 12 -14 -2z"/>
<path d="M390 3159 c-17 -30 -7 -44 29 -43 39 1 44 6 35 38 -8 33 -48 36 -64
5z m43 4 c-7 -2 -19 -2 -25 0 -7 3 -2 5 12 5 14 0 19 -2 13 -5z"/>
<path d="M331 3148 c-1 -15 9 -37 22 -50 12 -13 16 -16 8 -6 -7 9 -17 32 -21
50 -7 31 -8 31 -9 6z"/>
<path d="M500 3146 c0 -13 -9 -36 -21 -52 l-21 -29 26 28 c22 24 37 77 21 77
-3 0 -5 -11 -5 -24z"/>
<path d="M403 3063 c9 -2 25 -2 35 0 9 3 1 5 -18 5 -19 0 -27 -2 -17 -5z"/>
<path d="M867 3063 c-4 -3 -7 -11 -7 -17 0 -6 5 -5 12 2 6 6 9 14 7 17 -3 3
-9 2 -12 -2z"/>
<path d="M1350 3055 c-7 -8 -9 -15 -6 -15 4 0 14 7 22 15 9 8 11 15 6 15 -5 0
-15 -7 -22 -15z"/>
<path d="M1420 3060 c-13 -8 -12 -10 3 -10 9 0 17 5 17 10 0 12 -1 12 -20 0z"/>
<path d="M5 3025 c26 -9 105 -12 105 -4 0 5 -26 9 -57 8 -32 0 -54 -2 -48 -4z"/>
<path d="M0 1390 l0 -1390 1840 0 1840 0 0 1390 0 1390 -1840 0 -1840 0 0
-1390z m1450 1175 c0 24 24 13 28 -13 3 -17 -2 -21 -27 -20 -21 1 -31 6 -32
17 0 12 -3 11 -9 -4 -8 -17 -9 -16 -11 10 l-2 30 -4 -27 c-4 -27 -23 -40 -23
-17 0 8 -4 8 -14 0 -15 -13 -27 5 -25 37 0 12 2 13 6 3 5 -11 7 -11 15 0 7 11
11 11 15 2 3 -10 8 -9 20 2 14 14 18 13 39 -10 18 -20 24 -22 24 -10z m688 10
c8 3 21 0 28 -6 11 -9 14 -8 15 2 1 8 5 3 9 -11 4 -14 8 -18 9 -10 1 8 10 21
20 27 17 11 19 8 23 -18 3 -16 1 -29 -4 -29 -4 0 -9 8 -9 18 -1 16 -2 16 -6 0
-5 -20 -43 -25 -43 -5 0 8 -3 8 -8 1 -4 -6 -24 -11 -44 -11 -37 -1 -38 0 -38
34 0 32 1 33 16 18 9 -9 23 -14 32 -10z m-633 -21 c1 -13 -3 -24 -7 -24 -4 0
-8 14 -8 32 0 36 15 29 15 -8z m179 3 c-4 -20 -4 -20 4 -2 7 16 19 20 56 21
26 0 49 -3 52 -8 3 -5 13 -3 22 4 12 11 16 11 20 -1 4 -11 6 -11 13 0 13 21
20 4 10 -22 -5 -13 -10 -18 -10 -11 -1 6 -9 12 -18 12 -15 0 -16 -2 -3 -10 11
-8 9 -9 -12 -8 -16 1 -28 8 -28 15 0 20 -20 15 -21 -4 0 -15 -2 -15 -9 2 -7
17 -9 17 -9 3 -1 -22 -19 -24 -27 -3 -4 8 -11 15 -16 15 -7 0 -6 -5 1 -14 9
-11 6 -13 -14 -13 -15 0 -25 5 -25 13 0 8 -4 14 -10 14 -5 0 -9 -5 -7 -11 1
-6 -4 -14 -12 -17 -9 -3 -11 0 -6 9 6 11 5 12 -6 2 -24 -23 -49 -16 -48 15 l1
27 8 -25 c5 -17 8 -19 9 -7 1 9 9 18 19 19 9 0 22 2 29 2 6 1 15 4 19 8 12 13
22 -1 18 -25z m-119 13 c3 -5 1 -10 -4 -10 -6 0 -11 -5 -11 -11 0 -5 5 -7 10
-4 6 3 10 1 10 -4 0 -14 -27 -14 -35 -1 -8 14 1 40 14 40 5 0 13 -4 16 -10z
m365 -7 c0 -15 2 -16 10 -3 10 16 80 22 80 7 0 -5 -5 -17 -11 -28 -7 -15 -16
-18 -32 -13 -12 4 -34 7 -49 6 -20 0 -28 4 -28 17 0 10 3 21 7 24 12 12 23 7
23 -10z m148 -11 c2 -14 -2 -22 -11 -22 -20 0 -26 9 -20 31 7 25 27 19 31 -9z
m225 15 c3 12 5 8 6 -10 1 -22 -3 -28 -16 -25 -11 2 -19 14 -21 28 -2 23 -2
24 12 7 14 -18 14 -18 19 0z m45 -15 c2 -15 -2 -22 -12 -22 -11 0 -16 9 -16
26 0 31 23 28 28 -4z m-728 -157 c0 -5 -5 -3 -10 5 -5 8 -10 20 -10 25 0 6 5
3 10 -5 5 -8 10 -19 10 -25z m56 25 c13 0 24 -5 24 -11 0 -7 -10 -9 -26 -5
-17 5 -23 3 -19 -4 8 -13 -17 -9 -27 5 -13 17 -9 27 8 21 9 -3 27 -6 40 -6z
m65 -2 c0 -10 2 -10 6 0 7 19 23 14 23 -7 0 -13 -6 -18 -17 -16 -10 2 -21 4
-25 4 -5 1 -8 8 -8 16 0 18 20 20 21 3z m46 -20 c-3 -7 -5 -2 -5 12 0 14 2 19
5 13 2 -7 2 -19 0 -25z m174 10 c7 -10 9 -10 9 0 0 7 13 12 33 12 22 0 34 -5
34 -14 0 -11 -6 -12 -24 -5 -14 5 -23 5 -23 -1 0 -8 -45 -4 -62 6 -4 3 -8 0
-8 -5 0 -15 -30 -14 -31 2 0 10 -2 10 -6 0 -2 -7 -9 -13 -14 -13 -6 0 -7 5 -4
10 3 6 1 10 -4 10 -6 0 -11 -6 -11 -12 -1 -8 -6 -6 -14 5 -11 14 -15 15 -19 5
-4 -9 -6 -8 -6 3 -1 13 11 15 71 13 45 -2 74 -8 79 -16z m119 3 c0 -6 -4 -12
-8 -15 -5 -3 -9 1 -9 9 0 8 4 15 9 15 4 0 8 -4 8 -9z m-810 -121 c19 -19 20
-33 20 -415 l0 -396 -25 -24 -24 -25 -425 0 -425 0 -28 24 -28 24 0 397 0 397
24 19 c22 18 45 19 457 19 421 0 435 -1 454 -20z m1007 -2 l23 -21 0 -394 0
-394 -25 -24 -24 -25 -431 0 -431 0 -24 25 -25 24 0 392 c0 389 0 393 22 416
l21 23 436 0 c433 0 435 0 458 -22z m1009 1 c18 -20 19 -42 19 -416 l0 -395
-28 -24 -28 -24 -423 0 c-413 0 -424 0 -450 21 l-26 20 0 400 c0 386 1 400 20
419 19 19 33 20 458 20 434 0 439 0 458 -21z m-2694 -1404 c-4 -35 -5 -35 -53
-35 -53 0 -54 -1 -39 -31 9 -16 7 -19 -10 -19 -11 0 -23 7 -26 15 -4 9 -19 15
-41 15 -20 0 -32 4 -28 10 3 6 17 10 31 10 14 0 22 4 19 10 -3 6 5 10 19 10
14 0 28 4 31 10 3 5 16 15 28 20 22 10 22 10 0 -6 -34 -24 -28 -34 18 -34 40
0 41 1 37 30 -3 18 0 30 7 30 7 0 9 -13 7 -35z m23 5 c-3 -5 -1 -10 4 -10 6 0
11 -4 11 -10 0 -19 -26 -10 -27 10 -1 11 3 20 8 20 6 0 7 -4 4 -10z m32 -22
c-3 -7 -5 -2 -5 12 0 14 2 19 5 13 2 -7 2 -19 0 -25z m20 0 c-3 -7 -5 -2 -5
12 0 14 2 19 5 13 2 -7 2 -19 0 -25z m20 0 c-3 -7 -5 -2 -5 12 0 14 2 19 5 13
2 -7 2 -19 0 -25z m34 23 c7 11 9 10 9 -3 0 -9 -4 -20 -10 -23 -5 -3 -10 -4
-10 -1 0 2 -2 10 -3 18 -2 7 -2 9 1 4 2 -4 8 -2 13 5z m31 -13 c-7 -7 -12 -8
-12 -2 0 14 12 26 19 19 2 -3 -1 -11 -7 -17z m615 -20 c-3 -8 -6 -5 -6 6 -1
11 2 17 5 13 3 -3 4 -12 1 -19z m553 6 c0 -8 -5 -12 -10 -9 -6 4 -8 11 -5 16
9 14 15 11 15 -7z m847 -6 c-3 -8 -6 -5 -6 6 -1 11 2 17 5 13 3 -3 4 -12 1
-19z m20 0 c-3 -8 -6 -5 -6 6 -1 11 2 17 5 13 3 -3 4 -12 1 -19z m-1487 2 c0
-5 -4 -10 -10 -10 -5 0 -10 5 -10 10 0 6 5 10 10 10 6 0 10 -4 10 -10z m40 0
c0 -5 -4 -10 -10 -10 -5 0 -10 5 -10 10 0 6 5 10 10 10 6 0 10 -4 10 -10z
m1550 0 c0 -5 -2 -10 -4 -10 -3 0 -8 5 -11 10 -3 6 -1 10 4 10 6 0 11 -4 11
-10z m-2464 -60 c0 -12 -4 -16 -9 -11 -5 5 -6 14 -3 20 10 15 12 14 12 -9z
m34 -6 c0 -8 -4 -14 -8 -14 -4 0 -8 9 -8 19 0 11 4 17 8 15 4 -3 8 -12 8 -20z
m2193 -39 c7 -18 -9 -29 -30 -21 -12 5 -13 9 -3 21 16 19 26 19 33 0z m-1269
-16 c-3 -5 -14 -5 -25 1 -26 14 -24 18 6 12 14 -2 22 -8 19 -13z m1386 6 c0
-6 -9 -11 -20 -11 -11 0 -20 5 -20 11 0 6 9 11 20 11 11 0 20 -5 20 -11z m120
0 c0 -9 -9 -15 -25 -15 -16 0 -25 6 -25 15 0 9 9 15 25 15 16 0 25 -6 25 -15z
m-1055 -5 c3 -5 1 -10 -4 -10 -6 0 -11 5 -11 10 0 6 2 10 4 10 3 0 8 -4 11
-10z m225 -6 c0 -2 -7 -4 -15 -4 -8 0 -15 4 -15 10 0 5 7 7 15 4 8 -4 15 -8
15 -10z m154 -4 c-6 -6 -15 -5 -24 1 -13 9 -12 10 3 5 9 -3 17 0 17 6 0 6 3 8
7 5 4 -4 2 -12 -3 -17z m-77 -92 c-3 -8 -6 -5 -6 6 -1 11 2 17 5 13 3 -3 4
-12 1 -19z m63 10 c0 -4 -4 -8 -9 -8 -6 0 -12 4 -15 8 -3 5 1 9 9 9 8 0 15 -4
15 -9z m-320 -8 c0 -5 -2 -10 -4 -10 -3 0 -8 5 -11 10 -3 6 -1 10 4 10 6 0 11
-4 11 -10z m126 3 c-9 -9 -67 -13 -62 -4 3 4 19 8 37 9 17 0 29 -2 25 -5z
m104 3 c0 -2 -7 -7 -16 -10 -8 -3 -12 -2 -9 4 6 10 25 14 25 6z m210 -6 c0 -5
-5 -10 -11 -10 -5 0 -7 5 -4 10 3 6 8 10 11 10 2 0 4 -4 4 -10z m100 0 c0 -5
-2 -10 -4 -10 -3 0 -8 5 -11 10 -3 6 -1 10 4 10 6 0 11 -4 11 -10z m-1000 -39
c0 -4 -6 -8 -14 -8 -8 0 -12 6 -9 14 5 13 23 9 23 -6z m361 -38 c13 -16 12
-17 -3 -4 -10 7 -18 15 -18 17 0 8 8 3 21 -13z m163 -12 c4 -5 -1 -8 -9 -7
-21 3 -31 16 -12 16 9 0 18 -4 21 -9z m106 -1 c0 -5 -5 -10 -11 -10 -5 0 -7 5
-4 10 3 6 8 10 11 10 2 0 4 -4 4 -10z m-1170 -26 c0 -2 -7 -4 -15 -4 -8 0 -15
4 -15 10 0 5 7 7 15 4 8 -4 15 -8 15 -10z m490 12 c0 -3 -4 -8 -10 -11 -5 -3
-10 -1 -10 4 0 6 5 11 10 11 6 0 10 -2 10 -4z m410 -6 c0 -5 -4 -10 -10 -10
-5 0 -10 5 -10 10 0 6 5 10 10 10 6 0 10 -4 10 -10z m-1333 -62 c-3 -8 -6 -5
-6 6 -1 11 2 17 5 13 3 -3 4 -12 1 -19z m1343 -353 c0 -12 -29 -3 -34 10 -4
13 -2 14 14 5 11 -6 20 -13 20 -15z"/>
<path d="M1981 2544 c0 -11 3 -14 6 -6 3 7 2 16 -1 19 -3 4 -6 -2 -5 -13z"/>
</g>
</svg>
